<?xml version="1.0" encoding="UTF-8" standalone="no"?><svg xmlns="http://www.w3.org/2000/svg" xmlns:xlink="http://www.w3.org/1999/xlink" contentScriptType="application/ecmascript" contentStyleType="text/css" height="474px" preserveAspectRatio="none" style="width:1384px;height:474px;" version="1.1" viewBox="0 0 1384 474" width="1384px" zoomAndPan="magnify"><defs><filter height="300%" id="fgja033w3stbr" width="300%" x="-1" y="-1"><feGaussianBlur result="blurOut" stdDeviation="4.0"/><feColorMatrix in="blurOut" result="blurOut2" type="matrix" values="0 0 0 0 0 0 0 0 0 0 0 0 0 0 0 0 0 0 .4 0"/><feOffset dx="8.0" dy="8.0" in="blurOut2" result="blurOut3"/><feBlend in="SourceGraphic" in2="blurOut3" mode="normal"/></filter></defs><g><!--cluster OliProduction--><polygon fill="#FFFFFF" filter="url(#fgja033w3stbr)" points="44,48,268,48,282,92.5938,1340,92.5938,1340,450,44,450,44,48" style="stroke: #000000; stroke-width: 3.0;"/><line style="stroke: #000000; stroke-width: 3.0;" x1="44" x2="282" y1="92.5938" y2="92.5938"/><text fill="#000000" font-family="sans-serif" font-size="28" font-weight="bold" lengthAdjust="spacingAndGlyphs" textLength="212" x="52" y="77.9902">OliProduction</text><!--class Field--><rect fill="#FEFECE" filter="url(#fgja033w3stbr)" height="172.8281" id="Field" style="stroke: #A80036; stroke-width: 3.0;" width="230" x="77" y="182"/><ellipse cx="155.6" cy="214" fill="#ADD1B2" rx="22" ry="22" style="stroke: #A80036; stroke-width: 2.0;"/><path d="M160.2875,205.3438 L160.6313,205.5 C161.0688,204.875 161.475,204.6875 162.0688,204.6875 C162.6625,204.6875 163.225,204.9688 163.5375,205.5 C163.725,205.8125 163.7563,206.0625 163.7563,206.9375 L163.7563,209.7813 C163.7563,210.625 163.6938,211 163.475,211.3125 C163.1313,211.75 162.6,212.0313 162.0688,212.0313 C161.6313,212.0313 161.1625,211.8125 160.8813,211.5313 C160.6,211.2813 160.5375,211.0313 160.4125,210.2188 C160.225,209.4063 159.8813,208.9688 158.9125,208.4063 C157.975,207.9063 156.7563,207.5938 155.6,207.5938 C152.1313,207.5938 149.6313,210.2188 149.6313,213.7813 L149.6313,215.9688 C149.6313,219.375 152.225,221.5625 156.3188,221.5625 C157.85,221.5625 159.225,221.3125 160.0688,220.7813 C160.4438,220.5938 160.4438,220.5938 161.35,219.625 C161.725,219.25 162.1313,219.0938 162.5688,219.0938 C163.5063,219.0938 164.2875,219.875 164.2875,220.7813 C164.2875,221.5625 163.6313,222.4688 162.475,223.2813 C160.975,224.375 158.6625,224.9688 156.225,224.9688 C150.4438,224.9688 146.225,221.1875 146.225,216.0313 L146.225,213.7813 C146.225,208.3438 150.225,204.1875 155.475,204.1875 C157.225,204.1875 158.4125,204.4688 160.2875,205.3438 Z "/><text fill="#000000" font-family="sans-serif" font-size="24" lengthAdjust="spacingAndGlyphs" textLength="58" x="194.4" y="222.3086">Field</text><line style="stroke: #A80036; stroke-width: 3.0;" x1="79" x2="305" y1="246" y2="246"/><rect fill="none" height="12" style="stroke: #C82930; stroke-width: 2.0;" width="12" x="93" y="263.8047"/><text fill="#000000" font-family="sans-serif" font-size="22" lengthAdjust="spacingAndGlyphs" textLength="114" x="117" y="274.4209">unit256 ID</text><rect fill="none" height="12" style="stroke: #C82930; stroke-width: 2.0;" width="12" x="93" y="289.4141"/><text fill="#000000" font-family="sans-serif" font-size="22" lengthAdjust="spacingAndGlyphs" textLength="142" x="117" y="300.0303">String Name</text><rect fill="none" height="12" style="stroke: #C82930; stroke-width: 2.0;" width="12" x="93" y="315.0234"/><text fill="#000000" font-family="sans-serif" font-size="22" lengthAdjust="spacingAndGlyphs" textLength="178" x="117" y="325.6396">FieldState state</text><line style="stroke: #A80036; stroke-width: 3.0;" x1="79" x2="305" y1="338.8281" y2="338.8281"/><!--class OliProduction--><rect fill="#FEFECE" filter="url(#fgja033w3stbr)" height="300.875" id="OliProduction" style="stroke: #A80036; stroke-width: 3.0;" width="324" x="508" y="118"/><ellipse cx="580.3" cy="150" fill="#ADD1B2" rx="22" ry="22" style="stroke: #A80036; stroke-width: 2.0;"/><path d="M584.9875,141.3438 L585.3313,141.5 C585.7688,140.875 586.175,140.6875 586.7688,140.6875 C587.3625,140.6875 587.925,140.9688 588.2375,141.5 C588.425,141.8125 588.4563,142.0625 588.4563,142.9375 L588.4563,145.7813 C588.4563,146.625 588.3938,147 588.175,147.3125 C587.8313,147.75 587.3,148.0313 586.7688,148.0313 C586.3313,148.0313 585.8625,147.8125 585.5813,147.5313 C585.3,147.2813 585.2375,147.0313 585.1125,146.2188 C584.925,145.4063 584.5813,144.9688 583.6125,144.4063 C582.675,143.9063 581.4563,143.5938 580.3,143.5938 C576.8313,143.5938 574.3313,146.2188 574.3313,149.7813 L574.3313,151.9688 C574.3313,155.375 576.925,157.5625 581.0188,157.5625 C582.55,157.5625 583.925,157.3125 584.7688,156.7813 C585.1438,156.5938 585.1438,156.5938 586.05,155.625 C586.425,155.25 586.8313,155.0938 587.2688,155.0938 C588.2063,155.0938 588.9875,155.875 588.9875,156.7813 C588.9875,157.5625 588.3313,158.4688 587.175,159.2813 C585.675,160.375 583.3625,160.9688 580.925,160.9688 C575.1438,160.9688 570.925,157.1875 570.925,152.0313 L570.925,149.7813 C570.925,144.3438 574.925,140.1875 580.175,140.1875 C581.925,140.1875 583.1125,140.4688 584.9875,141.3438 Z "/><text fill="#000000" font-family="sans-serif" font-size="24" lengthAdjust="spacingAndGlyphs" textLength="166" x="617.7" y="158.3086">OliProduction</text><line style="stroke: #A80036; stroke-width: 3.0;" x1="510" x2="830" y1="182" y2="182"/><rect fill="none" height="12" style="stroke: #C82930; stroke-width: 2.0;" width="12" x="524" y="199.8047"/><text fill="#000000" font-family="sans-serif" font-size="22" lengthAdjust="spacingAndGlyphs" textLength="142" x="548" y="210.4209">united256 ID</text><rect fill="none" height="12" style="stroke: #C82930; stroke-width: 2.0;" width="12" x="524" y="225.4141"/><text fill="#000000" font-family="sans-serif" font-size="22" lengthAdjust="spacingAndGlyphs" textLength="268" x="548" y="236.0303">timestamp harvestDate</text><rect fill="none" height="12" style="stroke: #C82930; stroke-width: 2.0;" width="12" x="524" y="251.0234"/><text fill="#000000" font-family="sans-serif" font-size="22" lengthAdjust="spacingAndGlyphs" textLength="248" x="548" y="261.6396">timestamp pressDate</text><rect fill="none" height="12" style="stroke: #C82930; stroke-width: 2.0;" width="12" x="524" y="276.6328"/><text fill="#000000" font-family="sans-serif" font-size="22" lengthAdjust="spacingAndGlyphs" textLength="272" x="548" y="287.249">timestamp bootlingDate</text><rect fill="none" height="12" style="stroke: #C82930; stroke-width: 2.0;" width="12" x="524" y="302.2422"/><text fill="#000000" font-family="sans-serif" font-size="22" lengthAdjust="spacingAndGlyphs" textLength="270" x="548" y="312.8584">timestamp deliveryDate</text><rect fill="none" height="12" style="stroke: #C82930; stroke-width: 2.0;" width="12" x="524" y="327.8516"/><text fill="#000000" font-family="sans-serif" font-size="22" lengthAdjust="spacingAndGlyphs" textLength="192" x="548" y="338.4678">Real amoutLiters</text><rect fill="none" height="12" style="stroke: #C82930; stroke-width: 2.0;" width="12" x="524" y="353.4609"/><text fill="#000000" font-family="sans-serif" font-size="22" lengthAdjust="spacingAndGlyphs" textLength="260" x="548" y="364.0771">OliProdcuceState state</text><rect fill="none" height="12" style="stroke: #C82930; stroke-width: 2.0;" width="12" x="524" y="379.0703"/><text fill="#000000" font-family="sans-serif" font-size="22" lengthAdjust="spacingAndGlyphs" textLength="146" x="548" y="389.6865">String Notice</text><line style="stroke: #A80036; stroke-width: 3.0;" x1="510" x2="830" y1="402.875" y2="402.875"/><!--class Bottle--><rect fill="#FEFECE" filter="url(#fgja033w3stbr)" height="224.0469" id="Bottle" style="stroke: #A80036; stroke-width: 3.0;" width="312" x="996" y="156"/><ellipse cx="1106.5" cy="188" fill="#ADD1B2" rx="22" ry="22" style="stroke: #A80036; stroke-width: 2.0;"/><path d="M1111.1875,179.3438 L1111.5313,179.5 C1111.9688,178.875 1112.375,178.6875 1112.9688,178.6875 C1113.5625,178.6875 1114.125,178.9688 1114.4375,179.5 C1114.625,179.8125 1114.6563,180.0625 1114.6563,180.9375 L1114.6563,183.7813 C1114.6563,184.625 1114.5938,185 1114.375,185.3125 C1114.0313,185.75 1113.5,186.0313 1112.9688,186.0313 C1112.5313,186.0313 1112.0625,185.8125 1111.7813,185.5313 C1111.5,185.2813 1111.4375,185.0313 1111.3125,184.2188 C1111.125,183.4063 1110.7813,182.9688 1109.8125,182.4063 C1108.875,181.9063 1107.6563,181.5938 1106.5,181.5938 C1103.0313,181.5938 1100.5313,184.2188 1100.5313,187.7813 L1100.5313,189.9688 C1100.5313,193.375 1103.125,195.5625 1107.2188,195.5625 C1108.75,195.5625 1110.125,195.3125 1110.9688,194.7813 C1111.3438,194.5938 1111.3438,194.5938 1112.25,193.625 C1112.625,193.25 1113.0313,193.0938 1113.4688,193.0938 C1114.4063,193.0938 1115.1875,193.875 1115.1875,194.7813 C1115.1875,195.5625 1114.5313,196.4688 1113.375,197.2813 C1111.875,198.375 1109.5625,198.9688 1107.125,198.9688 C1101.3438,198.9688 1097.125,195.1875 1097.125,190.0313 L1097.125,187.7813 C1097.125,182.3438 1101.125,178.1875 1106.375,178.1875 C1108.125,178.1875 1109.3125,178.4688 1111.1875,179.3438 Z "/><text fill="#000000" font-family="sans-serif" font-size="24" lengthAdjust="spacingAndGlyphs" textLength="74" x="1147.5" y="196.3086">Bottle</text><line style="stroke: #A80036; stroke-width: 3.0;" x1="998" x2="1306" y1="220" y2="220"/><rect fill="none" height="12" style="stroke: #C82930; stroke-width: 2.0;" width="12" x="1012" y="237.8047"/><text fill="#000000" font-family="sans-serif" font-size="22" lengthAdjust="spacingAndGlyphs" textLength="142" x="1036" y="248.4209">united256 ID</text><rect fill="none" height="12" style="stroke: #C82930; stroke-width: 2.0;" width="12" x="1012" y="263.4141"/><text fill="#000000" font-family="sans-serif" font-size="22" lengthAdjust="spacingAndGlyphs" textLength="260" x="1036" y="274.0303">timestamp inShopDate</text><rect fill="none" height="12" style="stroke: #C82930; stroke-width: 2.0;" width="12" x="1012" y="289.0234"/><text fill="#000000" font-family="sans-serif" font-size="22" lengthAdjust="spacingAndGlyphs" textLength="222" x="1036" y="299.6396">timestamp sellDate</text><rect fill="none" height="12" style="stroke: #C82930; stroke-width: 2.0;" width="12" x="1012" y="314.6328"/><text fill="#000000" font-family="sans-serif" font-size="22" lengthAdjust="spacingAndGlyphs" textLength="146" x="1036" y="325.249">String Notice</text><rect fill="none" height="12" style="stroke: #C82930; stroke-width: 2.0;" width="12" x="1012" y="340.2422"/><text fill="#000000" font-family="sans-serif" font-size="22" lengthAdjust="spacingAndGlyphs" textLength="192" x="1036" y="350.8584">BottleState state</text><line style="stroke: #A80036; stroke-width: 3.0;" x1="998" x2="1306" y1="364.0469" y2="364.0469"/><!--link Field to OliProduction--><path d="M317.782,268 C375.728,268 445.22,268 507.11,268 " fill="none" id="Field-OliProduction" style="stroke: #A80036; stroke-width: 2.0;"/><polygon fill="#A80036" points="307.102,268,325.102,276,317.102,268,325.102,260,307.102,268" style="stroke: #A80036; stroke-width: 2.0;"/><text fill="#000000" font-family="sans-serif" font-size="26" lengthAdjust="spacingAndGlyphs" textLength="128" x="343.5" y="254.1338">harvested</text><text fill="#000000" font-family="sans-serif" font-size="26" lengthAdjust="spacingAndGlyphs" textLength="40" x="322.7232" y="293.8356">1:n</text><text fill="#000000" font-family="sans-serif" font-size="26" lengthAdjust="spacingAndGlyphs" textLength="40" x="451.9644" y="293.3507">0:n</text><!--link OliProduction to Bottle--><path d="M843.09,268 C889.476,268 939.518,268 985.536,268 " fill="none" id="OliProduction-Bottle" style="stroke: #A80036; stroke-width: 2.0;"/><polygon fill="#A80036" points="995.906,268,977.906,260,985.906,268,977.906,276,995.906,268" style="stroke: #A80036; stroke-width: 2.0;"/><polygon fill="#A80036" points="832.512,268,850.512,276,842.512,268,850.512,260,832.512,268" style="stroke: #A80036; stroke-width: 2.0;"/><text fill="#000000" font-family="sans-serif" font-size="26" lengthAdjust="spacingAndGlyphs" textLength="90" x="869" y="254.1338">bottled</text><text fill="#000000" font-family="sans-serif" font-size="26" lengthAdjust="spacingAndGlyphs" textLength="16" x="848.2311" y="260.7229">1</text><text fill="#000000" font-family="sans-serif" font-size="26" lengthAdjust="spacingAndGlyphs" textLength="40" x="940.2226" y="293.4795">0:n</text><!--
@startuml
scale 2
package OliProduction {
    
    class Field {
        - unit256 ID
        - String Name
        - FieldState state
    }

    class OliProduction {
        - united256 ID
        - timestamp harvestDate
        - timestamp pressDate
        - timestamp bootlingDate
        - timestamp deliveryDate
        - Real amoutLiters
        - OliProdcuceState state
        - String Notice  
    }

    class Bottle {
        - united256 ID
        - timestamp inShopDate
        - timestamp sellDate
        - String Notice  
        - BottleState state
    }

    Field "1:n" <- "0:n" OliProduction : harvested
    OliProduction "1" <-> "0:n" Bottle : bottled

}
@enduml

PlantUML version 1.2019.07beta1(Unknown compile time)
(GPL source distribution)
Java Runtime: Java(TM) SE Runtime Environment
JVM: Java HotSpot(TM) 64-Bit Server VM
Java Version: 1.7.0_25-b15
Operating System: Linux
Default Encoding: UTF-8
Language: en
Country: US
--></g></svg>