<?xml version="1.0" encoding="UTF-8" standalone="no"?><svg xmlns="http://www.w3.org/2000/svg" xmlns:xlink="http://www.w3.org/1999/xlink" contentScriptType="application/ecmascript" contentStyleType="text/css" height="1404px" preserveAspectRatio="none" style="width:1320px;height:1404px;" version="1.1" viewBox="0 0 1320 1404" width="1320px" zoomAndPan="magnify"><defs><filter height="300%" id="f1eqqjpncrxyxe" width="300%" x="-1" y="-1"><feGaussianBlur result="blurOut" stdDeviation="4.0"/><feColorMatrix in="blurOut" result="blurOut2" type="matrix" values="0 0 0 0 0 0 0 0 0 0 0 0 0 0 0 0 0 0 .4 0"/><feOffset dx="8.0" dy="8.0" in="blurOut2" result="blurOut3"/><feBlend in="SourceGraphic" in2="blurOut3" mode="normal"/></filter></defs><g><!--cluster SmartContract--><polygon fill="#FFFFFF" filter="url(#f1eqqjpncrxyxe)" points="44,48,284,48,298,92.5938,1276,92.5938,1276,1380,44,1380,44,48" style="stroke: #000000; stroke-width: 3.0;"/><line style="stroke: #000000; stroke-width: 3.0;" x1="44" x2="298" y1="92.5938" y2="92.5938"/><text fill="#000000" font-family="sans-serif" font-size="28" font-weight="bold" lengthAdjust="spacingAndGlyphs" textLength="228" x="52" y="77.9902">SmartContract</text><!--class Core--><rect fill="#FEFECE" filter="url(#f1eqqjpncrxyxe)" height="224.0469" id="Core" style="stroke: #A80036; stroke-width: 3.0;" width="508" x="372" y="1124"/><ellipse cx="588.5" cy="1156" fill="#ADD1B2" rx="22" ry="22" style="stroke: #A80036; stroke-width: 2.0;"/><path d="M593.1875,1147.3438 L593.5313,1147.5 C593.9688,1146.875 594.375,1146.6875 594.9688,1146.6875 C595.5625,1146.6875 596.125,1146.9688 596.4375,1147.5 C596.625,1147.8125 596.6563,1148.0625 596.6563,1148.9375 L596.6563,1151.7813 C596.6563,1152.625 596.5938,1153 596.375,1153.3125 C596.0313,1153.75 595.5,1154.0313 594.9688,1154.0313 C594.5313,1154.0313 594.0625,1153.8125 593.7813,1153.5313 C593.5,1153.2813 593.4375,1153.0313 593.3125,1152.2188 C593.125,1151.4063 592.7813,1150.9688 591.8125,1150.4063 C590.875,1149.9063 589.6563,1149.5938 588.5,1149.5938 C585.0313,1149.5938 582.5313,1152.2188 582.5313,1155.7813 L582.5313,1157.9688 C582.5313,1161.375 585.125,1163.5625 589.2188,1163.5625 C590.75,1163.5625 592.125,1163.3125 592.9688,1162.7813 C593.3438,1162.5938 593.3438,1162.5938 594.25,1161.625 C594.625,1161.25 595.0313,1161.0938 595.4688,1161.0938 C596.4063,1161.0938 597.1875,1161.875 597.1875,1162.7813 C597.1875,1163.5625 596.5313,1164.4688 595.375,1165.2813 C593.875,1166.375 591.5625,1166.9688 589.125,1166.9688 C583.3438,1166.9688 579.125,1163.1875 579.125,1158.0313 L579.125,1155.7813 C579.125,1150.3438 583.125,1146.1875 588.375,1146.1875 C590.125,1146.1875 591.3125,1146.4688 593.1875,1147.3438 Z "/><text fill="#000000" font-family="sans-serif" font-size="24" lengthAdjust="spacingAndGlyphs" textLength="58" x="629.5" y="1164.3086">Core</text><line style="stroke: #A80036; stroke-width: 3.0;" x1="374" x2="878" y1="1188" y2="1188"/><ellipse cx="394" cy="1211.8047" fill="none" rx="6" ry="6" style="stroke: #038048; stroke-width: 2.0;"/><text fill="#000000" font-family="sans-serif" font-size="22" lengthAdjust="spacingAndGlyphs" textLength="346" x="412" y="1216.4209">newContractAddress: address</text><ellipse cx="394" cy="1237.4141" fill="none" rx="6" ry="6" style="stroke: #038048; stroke-width: 2.0;"/><text fill="#000000" font-family="sans-serif" font-size="22" lengthAdjust="spacingAndGlyphs" textLength="180" x="412" y="1242.0303">owner: address</text><line style="stroke: #A80036; stroke-width: 3.0;" x1="374" x2="878" y1="1255.2188" y2="1255.2188"/><ellipse cx="394" cy="1279.0234" fill="#84BE84" rx="6" ry="6" style="stroke: #038048; stroke-width: 2.0;"/><text fill="#000000" font-family="sans-serif" font-size="22" lengthAdjust="spacingAndGlyphs" textLength="456" x="412" y="1283.6396">upgrade(newContractAddress): address</text><ellipse cx="394" cy="1304.6328" fill="#84BE84" rx="6" ry="6" style="stroke: #038048; stroke-width: 2.0;"/><text fill="#000000" font-family="sans-serif" font-size="22" lengthAdjust="spacingAndGlyphs" textLength="290" x="412" y="1309.249">ownable(owner): address</text><ellipse cx="394" cy="1330.2422" fill="#84BE84" rx="6" ry="6" style="stroke: #038048; stroke-width: 2.0;"/><text fill="#000000" font-family="sans-serif" font-size="22" lengthAdjust="spacingAndGlyphs" textLength="278" x="412" y="1334.8584">pause(bootleID): unit256</text><!--class Base--><rect fill="#FEFECE" filter="url(#f1eqqjpncrxyxe)" height="352.0938" id="Base" style="stroke: #A80036; stroke-width: 3.0;" width="454" x="399" y="652"/><ellipse cx="586.5" cy="684" fill="#ADD1B2" rx="22" ry="22" style="stroke: #A80036; stroke-width: 2.0;"/><path d="M591.1875,675.3438 L591.5313,675.5 C591.9688,674.875 592.375,674.6875 592.9688,674.6875 C593.5625,674.6875 594.125,674.9688 594.4375,675.5 C594.625,675.8125 594.6563,676.0625 594.6563,676.9375 L594.6563,679.7813 C594.6563,680.625 594.5938,681 594.375,681.3125 C594.0313,681.75 593.5,682.0313 592.9688,682.0313 C592.5313,682.0313 592.0625,681.8125 591.7813,681.5313 C591.5,681.2813 591.4375,681.0313 591.3125,680.2188 C591.125,679.4063 590.7813,678.9688 589.8125,678.4063 C588.875,677.9063 587.6563,677.5938 586.5,677.5938 C583.0313,677.5938 580.5313,680.2188 580.5313,683.7813 L580.5313,685.9688 C580.5313,689.375 583.125,691.5625 587.2188,691.5625 C588.75,691.5625 590.125,691.3125 590.9688,690.7813 C591.3438,690.5938 591.3438,690.5938 592.25,689.625 C592.625,689.25 593.0313,689.0938 593.4688,689.0938 C594.4063,689.0938 595.1875,689.875 595.1875,690.7813 C595.1875,691.5625 594.5313,692.4688 593.375,693.2813 C591.875,694.375 589.5625,694.9688 587.125,694.9688 C581.3438,694.9688 577.125,691.1875 577.125,686.0313 L577.125,683.7813 C577.125,678.3438 581.125,674.1875 586.375,674.1875 C588.125,674.1875 589.3125,674.4688 591.1875,675.3438 Z "/><text fill="#000000" font-family="sans-serif" font-size="24" lengthAdjust="spacingAndGlyphs" textLength="62" x="627.5" y="692.3086">Base</text><line style="stroke: #A80036; stroke-width: 3.0;" x1="401" x2="851" y1="716" y2="716"/><ellipse cx="421" cy="739.8047" fill="none" rx="6" ry="6" style="stroke: #038048; stroke-width: 2.0;"/><text fill="#000000" font-family="sans-serif" font-size="22" lengthAdjust="spacingAndGlyphs" textLength="52" x="439" y="744.4209">Field</text><ellipse cx="421" cy="765.4141" fill="none" rx="6" ry="6" style="stroke: #038048; stroke-width: 2.0;"/><text fill="#000000" font-family="sans-serif" font-size="22" lengthAdjust="spacingAndGlyphs" textLength="150" x="439" y="770.0303">OilProduction</text><ellipse cx="421" cy="791.0234" fill="none" rx="6" ry="6" style="stroke: #038048; stroke-width: 2.0;"/><text fill="#000000" font-family="sans-serif" font-size="22" lengthAdjust="spacingAndGlyphs" textLength="72" x="439" y="795.6396">Bootle</text><line style="stroke: #A80036; stroke-width: 3.0;" x1="401" x2="851" y1="808.8281" y2="808.8281"/><ellipse cx="421" cy="832.6328" fill="#84BE84" rx="6" ry="6" style="stroke: #038048; stroke-width: 2.0;"/><text fill="#000000" font-family="sans-serif" font-size="22" lengthAdjust="spacingAndGlyphs" textLength="102" x="439" y="837.249">harvest()</text><ellipse cx="421" cy="858.2422" fill="#84BE84" rx="6" ry="6" style="stroke: #038048; stroke-width: 2.0;"/><text fill="#000000" font-family="sans-serif" font-size="22" lengthAdjust="spacingAndGlyphs" textLength="254" x="439" y="862.8584">transport(State enum)</text><ellipse cx="421" cy="883.8516" fill="#84BE84" rx="6" ry="6" style="stroke: #038048; stroke-width: 2.0;"/><text fill="#000000" font-family="sans-serif" font-size="22" lengthAdjust="spacingAndGlyphs" textLength="82" x="439" y="888.4678">press()</text><ellipse cx="421" cy="909.4609" fill="#84BE84" rx="6" ry="6" style="stroke: #038048; stroke-width: 2.0;"/><text fill="#000000" font-family="sans-serif" font-size="22" lengthAdjust="spacingAndGlyphs" textLength="106" x="439" y="914.0771">bootling()</text><ellipse cx="421" cy="935.0703" fill="#84BE84" rx="6" ry="6" style="stroke: #038048; stroke-width: 2.0;"/><text fill="#000000" font-family="sans-serif" font-size="22" lengthAdjust="spacingAndGlyphs" textLength="402" x="439" y="939.6865">getDelivery(Address sellerAddress)</text><ellipse cx="421" cy="960.6797" fill="#84BE84" rx="6" ry="6" style="stroke: #038048; stroke-width: 2.0;"/><text fill="#000000" font-family="sans-serif" font-size="22" lengthAdjust="spacingAndGlyphs" textLength="224" x="439" y="965.2959">presentOil(bootleId)</text><ellipse cx="421" cy="986.2891" fill="#84BE84" rx="6" ry="6" style="stroke: #038048; stroke-width: 2.0;"/><text fill="#000000" font-family="sans-serif" font-size="22" lengthAdjust="spacingAndGlyphs" textLength="350" x="439" y="990.9053">buyOil(bootleId, buyerAddress)</text><!--class AccessControl--><rect fill="#FEFECE" filter="url(#f1eqqjpncrxyxe)" height="172.8281" id="AccessControl" style="stroke: #A80036; stroke-width: 3.0;" width="564" x="344" y="360"/><ellipse cx="528.5" cy="392" fill="#ADD1B2" rx="22" ry="22" style="stroke: #A80036; stroke-width: 2.0;"/><path d="M533.1875,383.3438 L533.5313,383.5 C533.9688,382.875 534.375,382.6875 534.9688,382.6875 C535.5625,382.6875 536.125,382.9688 536.4375,383.5 C536.625,383.8125 536.6563,384.0625 536.6563,384.9375 L536.6563,387.7813 C536.6563,388.625 536.5938,389 536.375,389.3125 C536.0313,389.75 535.5,390.0313 534.9688,390.0313 C534.5313,390.0313 534.0625,389.8125 533.7813,389.5313 C533.5,389.2813 533.4375,389.0313 533.3125,388.2188 C533.125,387.4063 532.7813,386.9688 531.8125,386.4063 C530.875,385.9063 529.6563,385.5938 528.5,385.5938 C525.0313,385.5938 522.5313,388.2188 522.5313,391.7813 L522.5313,393.9688 C522.5313,397.375 525.125,399.5625 529.2188,399.5625 C530.75,399.5625 532.125,399.3125 532.9688,398.7813 C533.3438,398.5938 533.3438,398.5938 534.25,397.625 C534.625,397.25 535.0313,397.0938 535.4688,397.0938 C536.4063,397.0938 537.1875,397.875 537.1875,398.7813 C537.1875,399.5625 536.5313,400.4688 535.375,401.2813 C533.875,402.375 531.5625,402.9688 529.125,402.9688 C523.3438,402.9688 519.125,399.1875 519.125,394.0313 L519.125,391.7813 C519.125,386.3438 523.125,382.1875 528.375,382.1875 C530.125,382.1875 531.3125,382.4688 533.1875,383.3438 Z "/><text fill="#000000" font-family="sans-serif" font-size="24" lengthAdjust="spacingAndGlyphs" textLength="178" x="569.5" y="400.3086">AccessControl</text><line style="stroke: #A80036; stroke-width: 3.0;" x1="346" x2="906" y1="424" y2="424"/><line style="stroke: #A80036; stroke-width: 3.0;" x1="346" x2="906" y1="440" y2="440"/><ellipse cx="366" cy="463.8047" fill="#84BE84" rx="6" ry="6" style="stroke: #038048; stroke-width: 2.0;"/><text fill="#000000" font-family="sans-serif" font-size="22" lengthAdjust="spacingAndGlyphs" textLength="512" x="384" y="468.4209">setManufactor(manufactorAddress): address</text><ellipse cx="366" cy="489.4141" fill="#84BE84" rx="6" ry="6" style="stroke: #038048; stroke-width: 2.0;"/><text fill="#000000" font-family="sans-serif" font-size="22" lengthAdjust="spacingAndGlyphs" textLength="452" x="384" y="494.0303">setSeller(manufactorAddress): address</text><ellipse cx="366" cy="515.0234" fill="#84BE84" rx="6" ry="6" style="stroke: #038048; stroke-width: 2.0;"/><text fill="#000000" font-family="sans-serif" font-size="22" lengthAdjust="spacingAndGlyphs" textLength="386" x="384" y="519.6396">setBuyer(buyerAddress): address</text><!--class Manufactor--><rect fill="#FEFECE" filter="url(#f1eqqjpncrxyxe)" height="121.6094" id="Manufactor" style="stroke: #A80036; stroke-width: 3.0;" width="386" x="857" y="118"/><ellipse cx="970.5" cy="150" fill="#ADD1B2" rx="22" ry="22" style="stroke: #A80036; stroke-width: 2.0;"/><path d="M975.1875,141.3438 L975.5313,141.5 C975.9688,140.875 976.375,140.6875 976.9688,140.6875 C977.5625,140.6875 978.125,140.9688 978.4375,141.5 C978.625,141.8125 978.6563,142.0625 978.6563,142.9375 L978.6563,145.7813 C978.6563,146.625 978.5938,147 978.375,147.3125 C978.0313,147.75 977.5,148.0313 976.9688,148.0313 C976.5313,148.0313 976.0625,147.8125 975.7813,147.5313 C975.5,147.2813 975.4375,147.0313 975.3125,146.2188 C975.125,145.4063 974.7813,144.9688 973.8125,144.4063 C972.875,143.9063 971.6563,143.5938 970.5,143.5938 C967.0313,143.5938 964.5313,146.2188 964.5313,149.7813 L964.5313,151.9688 C964.5313,155.375 967.125,157.5625 971.2188,157.5625 C972.75,157.5625 974.125,157.3125 974.9688,156.7813 C975.3438,156.5938 975.3438,156.5938 976.25,155.625 C976.625,155.25 977.0313,155.0938 977.4688,155.0938 C978.4063,155.0938 979.1875,155.875 979.1875,156.7813 C979.1875,157.5625 978.5313,158.4688 977.375,159.2813 C975.875,160.375 973.5625,160.9688 971.125,160.9688 C965.3438,160.9688 961.125,157.1875 961.125,152.0313 L961.125,149.7813 C961.125,144.3438 965.125,140.1875 970.375,140.1875 C972.125,140.1875 973.3125,140.4688 975.1875,141.3438 Z "/><text fill="#000000" font-family="sans-serif" font-size="24" lengthAdjust="spacingAndGlyphs" textLength="142" x="1011.5" y="158.3086">Manufactor</text><line style="stroke: #A80036; stroke-width: 3.0;" x1="859" x2="1241" y1="182" y2="182"/><ellipse cx="879" cy="205.8047" fill="none" rx="6" ry="6" style="stroke: #038048; stroke-width: 2.0;"/><text fill="#000000" font-family="sans-serif" font-size="22" lengthAdjust="spacingAndGlyphs" textLength="334" x="897" y="210.4209">manufactorAddress: address</text><line style="stroke: #A80036; stroke-width: 3.0;" x1="859" x2="1241" y1="223.6094" y2="223.6094"/><!--class Seller--><rect fill="#FEFECE" filter="url(#f1eqqjpncrxyxe)" height="121.6094" id="Seller" style="stroke: #A80036; stroke-width: 3.0;" width="320" x="466" y="118"/><ellipse cx="582.5" cy="150" fill="#ADD1B2" rx="22" ry="22" style="stroke: #A80036; stroke-width: 2.0;"/><path d="M587.1875,141.3438 L587.5313,141.5 C587.9688,140.875 588.375,140.6875 588.9688,140.6875 C589.5625,140.6875 590.125,140.9688 590.4375,141.5 C590.625,141.8125 590.6563,142.0625 590.6563,142.9375 L590.6563,145.7813 C590.6563,146.625 590.5938,147 590.375,147.3125 C590.0313,147.75 589.5,148.0313 588.9688,148.0313 C588.5313,148.0313 588.0625,147.8125 587.7813,147.5313 C587.5,147.2813 587.4375,147.0313 587.3125,146.2188 C587.125,145.4063 586.7813,144.9688 585.8125,144.4063 C584.875,143.9063 583.6563,143.5938 582.5,143.5938 C579.0313,143.5938 576.5313,146.2188 576.5313,149.7813 L576.5313,151.9688 C576.5313,155.375 579.125,157.5625 583.2188,157.5625 C584.75,157.5625 586.125,157.3125 586.9688,156.7813 C587.3438,156.5938 587.3438,156.5938 588.25,155.625 C588.625,155.25 589.0313,155.0938 589.4688,155.0938 C590.4063,155.0938 591.1875,155.875 591.1875,156.7813 C591.1875,157.5625 590.5313,158.4688 589.375,159.2813 C587.875,160.375 585.5625,160.9688 583.125,160.9688 C577.3438,160.9688 573.125,157.1875 573.125,152.0313 L573.125,149.7813 C573.125,144.3438 577.125,140.1875 582.375,140.1875 C584.125,140.1875 585.3125,140.4688 587.1875,141.3438 Z "/><text fill="#000000" font-family="sans-serif" font-size="24" lengthAdjust="spacingAndGlyphs" textLength="70" x="623.5" y="158.3086">Seller</text><line style="stroke: #A80036; stroke-width: 3.0;" x1="468" x2="784" y1="182" y2="182"/><ellipse cx="488" cy="205.8047" fill="none" rx="6" ry="6" style="stroke: #038048; stroke-width: 2.0;"/><text fill="#000000" font-family="sans-serif" font-size="22" lengthAdjust="spacingAndGlyphs" textLength="268" x="506" y="210.4209">sellerAddress: address</text><line style="stroke: #A80036; stroke-width: 3.0;" x1="468" x2="784" y1="223.6094" y2="223.6094"/><!--class Buyer--><rect fill="#FEFECE" filter="url(#f1eqqjpncrxyxe)" height="121.6094" id="Buyer" style="stroke: #A80036; stroke-width: 3.0;" width="320" x="76" y="118"/><ellipse cx="192.5" cy="150" fill="#ADD1B2" rx="22" ry="22" style="stroke: #A80036; stroke-width: 2.0;"/><path d="M197.1875,141.3438 L197.5313,141.5 C197.9688,140.875 198.375,140.6875 198.9688,140.6875 C199.5625,140.6875 200.125,140.9688 200.4375,141.5 C200.625,141.8125 200.6563,142.0625 200.6563,142.9375 L200.6563,145.7813 C200.6563,146.625 200.5938,147 200.375,147.3125 C200.0313,147.75 199.5,148.0313 198.9688,148.0313 C198.5313,148.0313 198.0625,147.8125 197.7813,147.5313 C197.5,147.2813 197.4375,147.0313 197.3125,146.2188 C197.125,145.4063 196.7813,144.9688 195.8125,144.4063 C194.875,143.9063 193.6563,143.5938 192.5,143.5938 C189.0313,143.5938 186.5313,146.2188 186.5313,149.7813 L186.5313,151.9688 C186.5313,155.375 189.125,157.5625 193.2188,157.5625 C194.75,157.5625 196.125,157.3125 196.9688,156.7813 C197.3438,156.5938 197.3438,156.5938 198.25,155.625 C198.625,155.25 199.0313,155.0938 199.4688,155.0938 C200.4063,155.0938 201.1875,155.875 201.1875,156.7813 C201.1875,157.5625 200.5313,158.4688 199.375,159.2813 C197.875,160.375 195.5625,160.9688 193.125,160.9688 C187.3438,160.9688 183.125,157.1875 183.125,152.0313 L183.125,149.7813 C183.125,144.3438 187.125,140.1875 192.375,140.1875 C194.125,140.1875 195.3125,140.4688 197.1875,141.3438 Z "/><text fill="#000000" font-family="sans-serif" font-size="24" lengthAdjust="spacingAndGlyphs" textLength="70" x="233.5" y="158.3086">Buyer</text><line style="stroke: #A80036; stroke-width: 3.0;" x1="78" x2="394" y1="182" y2="182"/><ellipse cx="98" cy="205.8047" fill="none" rx="6" ry="6" style="stroke: #038048; stroke-width: 2.0;"/><text fill="#000000" font-family="sans-serif" font-size="22" lengthAdjust="spacingAndGlyphs" textLength="268" x="116" y="210.4209">buyerAddress: address</text><line style="stroke: #A80036; stroke-width: 3.0;" x1="78" x2="394" y1="223.6094" y2="223.6094"/><!--link Base to Core--><path d="M626,1044.46 C626,1071.908 626,1099.046 626,1123.84 " fill="none" id="Base-Core" style="stroke: #A80036; stroke-width: 2.0;"/><polygon fill="none" points="612,1044.264,626,1004.264,640,1044.264,612,1044.264" style="stroke: #A80036; stroke-width: 2.0;"/><!--link AccessControl to Base--><path d="M626,573.204 C626,598.372 626,625.252 626,651.742 " fill="none" id="AccessControl-Base" style="stroke: #A80036; stroke-width: 2.0;"/><polygon fill="none" points="612,572.83,626,532.83,640,572.83,612,572.83" style="stroke: #A80036; stroke-width: 2.0;"/><!--link Manufactor to AccessControl--><path d="M954.846,240.022 C908.18,268.968 850.528,304.73 796.596,338.182 " fill="none" id="Manufactor-AccessControl" style="stroke: #A80036; stroke-width: 2.0;"/><polygon fill="none" points="803.216,350.55,761.844,359.738,788.456,326.756,803.216,350.55" style="stroke: #A80036; stroke-width: 2.0;"/><!--link Seller to AccessControl--><path d="M626,240.022 C626,263.456 626,291.354 626,318.878 " fill="none" id="Seller-AccessControl" style="stroke: #A80036; stroke-width: 2.0;"/><polygon fill="none" points="640,319.738,626,359.738,612,319.738,640,319.738" style="stroke: #A80036; stroke-width: 2.0;"/><!--link Buyer to AccessControl--><path d="M323.524,240.022 C366.04,268.694 418.468,304.048 467.666,337.226 " fill="none" id="Buyer-AccessControl" style="stroke: #A80036; stroke-width: 2.0;"/><polygon fill="none" points="475.712,325.766,501.048,359.738,460.058,348.982,475.712,325.766" style="stroke: #A80036; stroke-width: 2.0;"/><!--
@startuml
package SmartContract {
    scale 2
     class Core  {
        + newContractAddress: address
        + owner: address
        + upgrade(newContractAddress): address
        + ownable(owner): address
        + pause(bootleID): unit256

    }

     class Base {
        + Field
        + OilProduction
        + Bootle
        + harvest()
        + transport(State enum)
        + press()
        + bootling()
        + getDelivery(Address sellerAddress)
        + presentOil(bootleId)
        + buyOil(bootleId, buyerAddress)
    }

    class AccessControl {
        + setManufactor(manufactorAddress): address
        + setSeller(manufactorAddress): address
        + setBuyer(buyerAddress): address
    }

     class Manufactor {
        + manufactorAddress: address
    }

    class Seller {
        + sellerAddress: address
    }
 
    class Buyer {
        + buyerAddress: address
    }  

    Base <|- - Core
    AccessControl <|- - Base
    Manufactor - -|> AccessControl
    Seller - -|> AccessControl
    Buyer - -|> AccessControl
    
}
@enduml

PlantUML version 1.2019.07beta1(Unknown compile time)
(GPL source distribution)
Java Runtime: Java(TM) SE Runtime Environment
JVM: Java HotSpot(TM) 64-Bit Server VM
Java Version: 1.7.0_25-b15
Operating System: Linux
Default Encoding: UTF-8
Language: en
Country: US
--></g></svg>