<?xml version="1.0" encoding="UTF-8" standalone="no"?><svg xmlns="http://www.w3.org/2000/svg" xmlns:xlink="http://www.w3.org/1999/xlink" contentScriptType="application/ecmascript" contentStyleType="text/css" height="1072px" preserveAspectRatio="none" style="width:950px;height:1072px;" version="1.1" viewBox="0 0 950 1072" width="950px" zoomAndPan="magnify"><defs><filter height="300%" id="fy9hxtqccyv0g" width="300%" x="-1" y="-1"><feGaussianBlur result="blurOut" stdDeviation="4.0"/><feColorMatrix in="blurOut" result="blurOut2" type="matrix" values="0 0 0 0 0 0 0 0 0 0 0 0 0 0 0 0 0 0 .4 0"/><feOffset dx="8.0" dy="8.0" in="blurOut2" result="blurOut3"/><feBlend in="SourceGraphic" in2="blurOut3" mode="normal"/></filter></defs><g><rect fill="#FFFFFF" filter="url(#fy9hxtqccyv0g)" height="116.5313" style="stroke: #A80036; stroke-width: 2.0;" width="20" x="44" y="234.8594"/><rect fill="#FFFFFF" filter="url(#fy9hxtqccyv0g)" height="116.5313" style="stroke: #A80036; stroke-width: 2.0;" width="20" x="188" y="234.8594"/><rect fill="#FFFFFF" filter="url(#fy9hxtqccyv0g)" height="315.0625" style="stroke: #A80036; stroke-width: 2.0;" width="20" x="364" y="293.125"/><rect fill="#FFFFFF" filter="url(#fy9hxtqccyv0g)" height="387.0625" style="stroke: #A80036; stroke-width: 2.0;" width="20" x="518" y="493.9219"/><rect fill="#FFFFFF" filter="url(#fy9hxtqccyv0g)" height="300.7969" style="stroke: #A80036; stroke-width: 2.0;" width="20" x="627" y="580.1875"/><rect fill="#FFFFFF" filter="url(#fy9hxtqccyv0g)" height="46" style="stroke: #A80036; stroke-width: 2.0;" width="20" x="855" y="834.9844"/><line style="stroke: #A80036; stroke-width: 2.0; stroke-dasharray: 5.0,5.0;" x1="54" x2="54" y1="172.5938" y2="898.9844"/><line style="stroke: #A80036; stroke-width: 2.0; stroke-dasharray: 5.0,5.0;" x1="198" x2="198" y1="172.5938" y2="898.9844"/><line style="stroke: #A80036; stroke-width: 2.0; stroke-dasharray: 5.0,5.0;" x1="374" x2="374" y1="172.5938" y2="898.9844"/><line style="stroke: #A80036; stroke-width: 2.0; stroke-dasharray: 5.0,5.0;" x1="527" x2="527" y1="172.5938" y2="898.9844"/><line style="stroke: #A80036; stroke-width: 2.0; stroke-dasharray: 5.0,5.0;" x1="637" x2="637" y1="172.5938" y2="898.9844"/><line style="stroke: #A80036; stroke-width: 2.0; stroke-dasharray: 5.0,5.0;" x1="865" x2="865" y1="172.5938" y2="898.9844"/><text fill="#000000" font-family="sans-serif" font-size="28" lengthAdjust="spacingAndGlyphs" textLength="64" x="16" y="165.9902">Field</text><ellipse cx="54" cy="108" fill="#FEFECE" filter="url(#fy9hxtqccyv0g)" rx="24" ry="24" style="stroke: #A80036; stroke-width: 4.0;"/><line style="stroke: #A80036; stroke-width: 4.0;" x1="30" x2="78" y1="136" y2="136"/><text fill="#000000" font-family="sans-serif" font-size="28" lengthAdjust="spacingAndGlyphs" textLength="64" x="16" y="922.9746">Field</text><ellipse cx="54" cy="961.5781" fill="#FEFECE" filter="url(#fy9hxtqccyv0g)" rx="24" ry="24" style="stroke: #A80036; stroke-width: 4.0;"/><line style="stroke: #A80036; stroke-width: 4.0;" x1="30" x2="78" y1="989.5781" y2="989.5781"/><text fill="#000000" font-family="sans-serif" font-size="28" lengthAdjust="spacingAndGlyphs" textLength="96" x="144" y="165.9902">Farmer</text><ellipse cx="198" cy="26" fill="#FEFECE" filter="url(#fy9hxtqccyv0g)" rx="16" ry="16" style="stroke: #A80036; stroke-width: 4.0;"/><path d="M198,42 L198,96 M172,58 L224,58 M198,96 L172,126 M198,96 L224,126 " fill="none" filter="url(#fy9hxtqccyv0g)" style="stroke: #A80036; stroke-width: 4.0;"/><text fill="#000000" font-family="sans-serif" font-size="28" lengthAdjust="spacingAndGlyphs" textLength="96" x="144" y="922.9746">Farmer</text><ellipse cx="198" cy="949.5781" fill="#FEFECE" filter="url(#fy9hxtqccyv0g)" rx="16" ry="16" style="stroke: #A80036; stroke-width: 4.0;"/><path d="M198,965.5781 L198,1019.5781 M172,981.5781 L224,981.5781 M198,1019.5781 L172,1049.5781 M198,1019.5781 L224,1049.5781 " fill="none" filter="url(#fy9hxtqccyv0g)" style="stroke: #A80036; stroke-width: 4.0;"/><text fill="#000000" font-family="sans-serif" font-size="28" lengthAdjust="spacingAndGlyphs" textLength="42" x="347" y="165.9902">Mill</text><ellipse cx="374" cy="26" fill="#FEFECE" filter="url(#fy9hxtqccyv0g)" rx="16" ry="16" style="stroke: #A80036; stroke-width: 4.0;"/><path d="M374,42 L374,96 M348,58 L400,58 M374,96 L348,126 M374,96 L400,126 " fill="none" filter="url(#fy9hxtqccyv0g)" style="stroke: #A80036; stroke-width: 4.0;"/><text fill="#000000" font-family="sans-serif" font-size="28" lengthAdjust="spacingAndGlyphs" textLength="42" x="347" y="922.9746">Mill</text><ellipse cx="374" cy="949.5781" fill="#FEFECE" filter="url(#fy9hxtqccyv0g)" rx="16" ry="16" style="stroke: #A80036; stroke-width: 4.0;"/><path d="M374,965.5781 L374,1019.5781 M348,981.5781 L400,981.5781 M374,1019.5781 L348,1049.5781 M374,1019.5781 L400,1049.5781 " fill="none" filter="url(#fy9hxtqccyv0g)" style="stroke: #A80036; stroke-width: 4.0;"/><text fill="#000000" font-family="sans-serif" font-size="28" lengthAdjust="spacingAndGlyphs" textLength="82" x="481" y="165.9902">Bottle</text><ellipse cx="528" cy="108" fill="#FEFECE" filter="url(#fy9hxtqccyv0g)" rx="24" ry="24" style="stroke: #A80036; stroke-width: 4.0;"/><line style="stroke: #A80036; stroke-width: 4.0;" x1="504" x2="552" y1="136" y2="136"/><text fill="#000000" font-family="sans-serif" font-size="28" lengthAdjust="spacingAndGlyphs" textLength="82" x="481" y="922.9746">Bottle</text><ellipse cx="528" cy="961.5781" fill="#FEFECE" filter="url(#fy9hxtqccyv0g)" rx="24" ry="24" style="stroke: #A80036; stroke-width: 4.0;"/><line style="stroke: #A80036; stroke-width: 4.0;" x1="504" x2="552" y1="989.5781" y2="989.5781"/><text fill="#000000" font-family="sans-serif" font-size="28" lengthAdjust="spacingAndGlyphs" textLength="72" x="595" y="165.9902">Shop</text><ellipse cx="637" cy="26" fill="#FEFECE" filter="url(#fy9hxtqccyv0g)" rx="16" ry="16" style="stroke: #A80036; stroke-width: 4.0;"/><path d="M637,42 L637,96 M611,58 L663,58 M637,96 L611,126 M637,96 L663,126 " fill="none" filter="url(#fy9hxtqccyv0g)" style="stroke: #A80036; stroke-width: 4.0;"/><text fill="#000000" font-family="sans-serif" font-size="28" lengthAdjust="spacingAndGlyphs" textLength="72" x="595" y="922.9746">Shop</text><ellipse cx="637" cy="949.5781" fill="#FEFECE" filter="url(#fy9hxtqccyv0g)" rx="16" ry="16" style="stroke: #A80036; stroke-width: 4.0;"/><path d="M637,965.5781 L637,1019.5781 M611,981.5781 L663,981.5781 M637,1019.5781 L611,1049.5781 M637,1019.5781 L663,1049.5781 " fill="none" filter="url(#fy9hxtqccyv0g)" style="stroke: #A80036; stroke-width: 4.0;"/><text fill="#000000" font-family="sans-serif" font-size="28" lengthAdjust="spacingAndGlyphs" textLength="136" x="791" y="165.9902">Customer</text><ellipse cx="865" cy="26" fill="#FEFECE" filter="url(#fy9hxtqccyv0g)" rx="16" ry="16" style="stroke: #A80036; stroke-width: 4.0;"/><path d="M865,42 L865,96 M839,58 L891,58 M865,96 L839,126 M865,96 L891,126 " fill="none" filter="url(#fy9hxtqccyv0g)" style="stroke: #A80036; stroke-width: 4.0;"/><text fill="#000000" font-family="sans-serif" font-size="28" lengthAdjust="spacingAndGlyphs" textLength="136" x="791" y="922.9746">Customer</text><ellipse cx="865" cy="949.5781" fill="#FEFECE" filter="url(#fy9hxtqccyv0g)" rx="16" ry="16" style="stroke: #A80036; stroke-width: 4.0;"/><path d="M865,965.5781 L865,1019.5781 M839,981.5781 L891,981.5781 M865,1019.5781 L839,1049.5781 M865,1019.5781 L891,1049.5781 " fill="none" filter="url(#fy9hxtqccyv0g)" style="stroke: #A80036; stroke-width: 4.0;"/><rect fill="#FFFFFF" filter="url(#fy9hxtqccyv0g)" height="116.5313" style="stroke: #A80036; stroke-width: 2.0;" width="20" x="44" y="234.8594"/><rect fill="#FFFFFF" filter="url(#fy9hxtqccyv0g)" height="116.5313" style="stroke: #A80036; stroke-width: 2.0;" width="20" x="188" y="234.8594"/><rect fill="#FFFFFF" filter="url(#fy9hxtqccyv0g)" height="315.0625" style="stroke: #A80036; stroke-width: 2.0;" width="20" x="364" y="293.125"/><rect fill="#FFFFFF" filter="url(#fy9hxtqccyv0g)" height="387.0625" style="stroke: #A80036; stroke-width: 2.0;" width="20" x="518" y="493.9219"/><rect fill="#FFFFFF" filter="url(#fy9hxtqccyv0g)" height="300.7969" style="stroke: #A80036; stroke-width: 2.0;" width="20" x="627" y="580.1875"/><rect fill="#FFFFFF" filter="url(#fy9hxtqccyv0g)" height="46" style="stroke: #A80036; stroke-width: 2.0;" width="20" x="855" y="834.9844"/><polygon fill="#A80036" points="86,226.8594,66,234.8594,86,242.8594,78,234.8594" style="stroke: #A80036; stroke-width: 2.0;"/><line style="stroke: #A80036; stroke-width: 2.0;" x1="74" x2="186" y1="234.8594" y2="234.8594"/><text fill="#000000" font-family="sans-serif" font-size="26" lengthAdjust="spacingAndGlyphs" textLength="96" x="98" y="224.7275">harvest</text><polygon fill="#A80036" points="340,285.125,360,293.125,340,301.125,348,293.125" style="stroke: #A80036; stroke-width: 2.0;"/><line style="stroke: #A80036; stroke-width: 2.0;" x1="208" x2="352" y1="293.125" y2="293.125"/><text fill="#000000" font-family="sans-serif" font-size="26" lengthAdjust="spacingAndGlyphs" textLength="118" x="222" y="282.9932">transport</text><polygon fill="#A80036" points="340,343.3906,360,351.3906,340,359.3906,348,351.3906" style="stroke: #A80036; stroke-width: 2.0;"/><line style="stroke: #A80036; stroke-width: 2.0; stroke-dasharray: 2.0,2.0;" x1="54" x2="352" y1="351.3906" y2="351.3906"/><text fill="#000000" font-family="sans-serif" font-size="26" lengthAdjust="spacingAndGlyphs" textLength="98" x="68" y="341.2588">oil seed</text><line style="stroke: #A80036; stroke-width: 2.0;" x1="384" x2="468" y1="409.6563" y2="409.6563"/><line style="stroke: #A80036; stroke-width: 2.0;" x1="468" x2="468" y1="409.6563" y2="435.6563"/><line style="stroke: #A80036; stroke-width: 2.0;" x1="386" x2="468" y1="435.6563" y2="435.6563"/><polygon fill="#A80036" points="406,427.6563,386,435.6563,406,443.6563,398,435.6563" style="stroke: #A80036; stroke-width: 2.0;"/><text fill="#000000" font-family="sans-serif" font-size="26" lengthAdjust="spacingAndGlyphs" textLength="70" x="398" y="399.5244">press</text><polygon fill="#A80036" points="494,485.9219,514,493.9219,494,501.9219,502,493.9219" style="stroke: #A80036; stroke-width: 2.0;"/><line style="stroke: #A80036; stroke-width: 2.0;" x1="384" x2="506" y1="493.9219" y2="493.9219"/><text fill="#000000" font-family="sans-serif" font-size="26" lengthAdjust="spacingAndGlyphs" textLength="96" x="398" y="483.79">bottling</text><polygon fill="#A80036" points="406,513.9219,386,521.9219,406,529.9219,398,521.9219" style="stroke: #A80036; stroke-width: 2.0;"/><line style="stroke: #A80036; stroke-width: 2.0; stroke-dasharray: 2.0,2.0;" x1="394" x2="516" y1="521.9219" y2="521.9219"/><polygon fill="#A80036" points="603,572.1875,623,580.1875,603,588.1875,611,580.1875" style="stroke: #A80036; stroke-width: 2.0;"/><line style="stroke: #A80036; stroke-width: 2.0;" x1="384" x2="615" y1="580.1875" y2="580.1875"/><text fill="#000000" font-family="sans-serif" font-size="26" lengthAdjust="spacingAndGlyphs" textLength="118" x="398" y="570.0557">transport</text><polygon fill="#A80036" points="603,600.1875,623,608.1875,603,616.1875,611,608.1875" style="stroke: #A80036; stroke-width: 2.0;"/><line style="stroke: #A80036; stroke-width: 2.0; stroke-dasharray: 2.0,2.0;" x1="538" x2="615" y1="608.1875" y2="608.1875"/><line style="stroke: #A80036; stroke-width: 2.0;" x1="647" x2="731" y1="666.4531" y2="666.4531"/><line style="stroke: #A80036; stroke-width: 2.0;" x1="731" x2="731" y1="666.4531" y2="692.4531"/><line style="stroke: #A80036; stroke-width: 2.0;" x1="649" x2="731" y1="692.4531" y2="692.4531"/><polygon fill="#A80036" points="669,684.4531,649,692.4531,669,700.4531,661,692.4531" style="stroke: #A80036; stroke-width: 2.0;"/><text fill="#000000" font-family="sans-serif" font-size="26" lengthAdjust="spacingAndGlyphs" textLength="148" x="661" y="656.3213">get delivery</text><line style="stroke: #A80036; stroke-width: 2.0;" x1="647" x2="731" y1="750.7188" y2="750.7188"/><line style="stroke: #A80036; stroke-width: 2.0;" x1="731" x2="731" y1="750.7188" y2="776.7188"/><line style="stroke: #A80036; stroke-width: 2.0;" x1="649" x2="731" y1="776.7188" y2="776.7188"/><polygon fill="#A80036" points="669,768.7188,649,776.7188,669,784.7188,661,776.7188" style="stroke: #A80036; stroke-width: 2.0;"/><text fill="#000000" font-family="sans-serif" font-size="26" lengthAdjust="spacingAndGlyphs" textLength="180" x="661" y="740.5869">present bottle</text><polygon fill="#A80036" points="669,826.9844,649,834.9844,669,842.9844,661,834.9844" style="stroke: #A80036; stroke-width: 2.0;"/><line style="stroke: #A80036; stroke-width: 2.0;" x1="657" x2="853" y1="834.9844" y2="834.9844"/><text fill="#000000" font-family="sans-serif" font-size="26" lengthAdjust="spacingAndGlyphs" textLength="82" x="681" y="824.8525">buy oil</text><polygon fill="#A80036" points="831,854.9844,851,862.9844,831,870.9844,839,862.9844" style="stroke: #A80036; stroke-width: 2.0;"/><line style="stroke: #A80036; stroke-width: 2.0; stroke-dasharray: 2.0,2.0;" x1="538" x2="843" y1="862.9844" y2="862.9844"/><!--
@startuml
scale 2
entity Field
actor Farmer
actor Mill
entity Bottle
actor Shop 
actor Customer
Farmer -> Field : harvest
activate Farmer
activate Field
Farmer -> Mill : transport
activate Mill
Field - -> Mill : oil seed
deactivate Field
deactivate Farmer
Mill -> Mill : press 
Mill -> Bottle : bottling
activate Bottle
Bottle - -> Mill 
Mill -> Shop : transport
activate Shop
Bottle - -> Shop
deactivate Mill
Shop -> Shop :  get delivery
Shop -> Shop : present bottle
Customer -> Shop : buy oil
activate Customer
Bottle - -> Customer
@enduml

PlantUML version 1.2019.07beta1(Unknown compile time)
(GPL source distribution)
Java Runtime: Java(TM) SE Runtime Environment
JVM: Java HotSpot(TM) 64-Bit Server VM
Java Version: 1.7.0_25-b15
Operating System: Linux
Default Encoding: UTF-8
Language: en
Country: US
--></g></svg>