<svg xmlns="http://www.w3.org/2000/svg" xmlns:xlink="http://www.w3.org/1999/xlink" xmlns:lucid="lucid" width="1560" height="1160"><g transform="translate(-160 -60)" lucid:page-tab-id="0_0"><path d="M260 120c0 11.05-8.95 20-20 20s-20-8.95-20-20 8.95-20 20-20 20 8.95 20 20z" stroke="#000" stroke-width="2"/><path d="M336 80c-8.84 0-16 7.16-16 16v48c0 8.84 7.16 16 16 16h128c8.84 0 16-7.16 16-16V96c0-8.84-7.16-16-16-16z" stroke="#000" stroke-width="2" fill="#fff"/><use xlink:href="#a" transform="matrix(1,0,0,1,328,88) translate(43.099999999999994 35.6)"/><path d="M262 120h38.5" stroke="#000" stroke-width="2" fill="none"/><path d="M262.03 121h-1.15l.12-.96-.03-1.04h1.06z"/><path d="M315.76 120l-14.26 4.64v-9.28z" stroke="#000" stroke-width="2"/><path d="M320 225c0-2.76 2.24-5 5-5h150c2.76 0 5 2.24 5 5v70c0 2.76-2.24 5-5 5H325c-2.76 0-5-2.24-5-5z" stroke="#000" stroke-width="2" fill="#fff"/><use xlink:href="#b" transform="matrix(1,0,0,1,320,220) translate(28.57999999999999 44.4)"/><path d="M320 365c0-2.76 2.24-5 5-5h150c2.76 0 5 2.24 5 5v70c0 2.76-2.24 5-5 5H325c-2.76 0-5-2.24-5-5z" stroke="#000" stroke-width="2" fill="#fff"/><use xlink:href="#c" transform="matrix(1,0,0,1,320,360) translate(31.10499999999999 44.4)"/><path d="M555 80c-8.84 0-16 7.16-16 16v48c0 8.84 7.16 16 16 16h128c8.84 0 16-7.16 16-16V96c0-8.84-7.16-16-16-16z" stroke="#000" stroke-width="2" fill="#fff"/><use xlink:href="#d" transform="matrix(1,0,0,1,546.9993762921772,88) translate(58.6 35.6)"/><path d="M482 120h37.5" stroke="#000" stroke-width="2" fill="none"/><path d="M482.03 121H481v-2h1.03z"/><path d="M534.76 120l-14.26 4.64v-9.28z" stroke="#000" stroke-width="2"/><path d="M539 225c0-2.76 2.24-5 5-5h150c2.76 0 5 2.24 5 5v70c0 2.76-2.24 5-5 5H544c-2.76 0-5-2.24-5-5z" stroke="#000" stroke-width="2" fill="#fff"/><use xlink:href="#e" transform="matrix(1,0,0,1,538.9993762921772,220) translate(33.55499999999999 31.9)"/><use xlink:href="#f" transform="matrix(1,0,0,1,538.9993762921772,220) translate(28.57999999999999 53.5)"/><path d="M539 365c0-2.76 2.24-5 5-5h150c2.76 0 5 2.24 5 5v70c0 2.76-2.24 5-5 5H544c-2.76 0-5-2.24-5-5z" stroke="#000" stroke-width="2" fill="#fff"/><use xlink:href="#g" transform="matrix(1,0,0,1,538.9993762921772,360) translate(47.07999999999999 44.4)"/><path d="M775 80c-8.84 0-16 7.16-16 16v48c0 8.84 7.16 16 16 16h128c8.84 0 16-7.16 16-16V96c0-8.84-7.16-16-16-16z" stroke="#000" stroke-width="2" fill="#fff"/><use xlink:href="#d" transform="matrix(1,0,0,1,766.9993762921772,88) translate(58.6 35.6)"/><path d="M701 120h38.5M701.03 120H700" stroke="#000" stroke-width="2" fill="none"/><path d="M754.76 120l-14.26 4.64v-9.28z" stroke="#000" stroke-width="2"/><path d="M759 225c0-2.76 2.24-5 5-5h150c2.76 0 5 2.24 5 5v70c0 2.76-2.24 5-5 5H764c-2.76 0-5-2.24-5-5z" stroke="#000" stroke-width="2" fill="#fff"/><use xlink:href="#h" transform="matrix(1,0,0,1,758.9993762921772,220) translate(40.55499999999999 31.9)"/><use xlink:href="#f" transform="matrix(1,0,0,1,758.9993762921772,220) translate(28.57999999999999 53.5)"/><path d="M759 365c0-2.76 2.24-5 5-5h150c2.76 0 5 2.24 5 5v70c0 2.76-2.24 5-5 5H764c-2.76 0-5-2.24-5-5z" stroke="#000" stroke-width="2" fill="#fff"/><use xlink:href="#i" transform="matrix(1,0,0,1,758.9993762921772,360) translate(51.055 44.4)"/><path d="M180 800v-35c0-2.76 2.24-5 5-5h550c2.76 0 5 2.24 5 5v35" fill="#fff"/><path d="M180 800v-35c0-2.76 2.24-5 5-5h550c2.76 0 5 2.24 5 5v35M180 800v155c0 2.76 2.24 5 5 5h550c2.76 0 5-2.24 5-5V800M180 800h560" stroke="#000" stroke-width="2" fill="none"/><use xlink:href="#j" transform="matrix(1,0,0,1,180,760) translate(260.575 23.6)"/><path d="M240 880c0 11.05-8.95 20-20 20s-20-8.95-20-20 8.95-20 20-20 20 8.95 20 20z" stroke="#000" stroke-width="2"/><path d="M280 845c0-2.76 2.24-5 5-5h150c2.76 0 5 2.24 5 5v70c0 2.76-2.24 5-5 5H285c-2.76 0-5-2.24-5-5z" stroke="#000" stroke-width="2" fill="#fff"/><use xlink:href="#k" transform="matrix(1,0,0,1,280,840) translate(49.529999999999994 44.4)"/><path d="M480 845c0-2.76 2.24-5 5-5h150c2.76 0 5 2.24 5 5v70c0 2.76-2.24 5-5 5H485c-2.76 0-5-2.24-5-5z" stroke="#000" stroke-width="2" fill="#fff"/><use xlink:href="#l" transform="matrix(1,0,0,1,480,840) translate(49.05499999999999 44.4)"/><path d="M242 880h18.5" stroke="#000" stroke-width="2" fill="none"/><path d="M242.03 881h-1.15l.12-.96-.03-1.04h1.06z"/><path d="M275.76 880l-14.26 4.64v-9.28z" stroke="#000" stroke-width="2"/><path d="M442 880h18.5" stroke="#000" stroke-width="2" fill="none"/><path d="M442.03 881H441v-2h1.03z"/><path d="M475.76 880l-14.26 4.64v-9.28z" stroke="#000" stroke-width="2"/><path d="M642 880h18.5" stroke="#000" stroke-width="2" fill="none"/><path d="M642.03 881H641v-2h1.03z"/><path d="M675.76 880l-14.26 4.64v-9.28z" stroke="#000" stroke-width="2"/><path d="M720 880c0 11.05-8.95 20-20 20s-20-8.95-20-20 8.95-20 20-20 20 8.95 20 20z" stroke="#000" stroke-width="2" fill="#fff"/><path d="M712 880c0 6.63-5.37 12-12 12s-12-5.37-12-12 5.37-12 12-12 12 5.37 12 12z" stroke="#000" stroke-width="2"/><path d="M400 442v298.5" stroke="#000" stroke-width="2" fill="none"/><path d="M401 442.03h-2V441h2z"/><path d="M400 755.76l-4.64-14.26h9.28z" stroke="#000" stroke-width="2"/><path d="M400 162v38.5" stroke="#000" stroke-width="2" fill="none"/><path d="M401 162.03h-2V161h2z"/><path d="M400 215.76l-4.64-14.26h9.28z" stroke="#000" stroke-width="2"/><path d="M400 302v38.5" stroke="#000" stroke-width="2" fill="none"/><path d="M401 302.03h-2V301h2z"/><path d="M400 355.76l-4.64-14.26h9.28z" stroke="#000" stroke-width="2"/><path d="M619 162v38.5" stroke="#000" stroke-width="2" fill="none"/><path d="M620 162.03h-2V161h2z"/><path d="M619 215.76l-4.64-14.26h9.27z" stroke="#000" stroke-width="2"/><path d="M619 302v38.5" stroke="#000" stroke-width="2" fill="none"/><path d="M620 302.03h-2V301h2z"/><path d="M619 355.76l-4.64-14.26h9.27z" stroke="#000" stroke-width="2"/><path d="M839 162v38.5" stroke="#000" stroke-width="2" fill="none"/><path d="M840 162.03h-2V161h2z"/><path d="M839 215.76l-4.64-14.26h9.27z" stroke="#000" stroke-width="2"/><path d="M839 302v38.5" stroke="#000" stroke-width="2" fill="none"/><path d="M840 302.03h-2V301h2z"/><path d="M839 355.76l-4.64-14.26h9.27z" stroke="#000" stroke-width="2"/><path d="M921 120h37.5M921.03 120H920" stroke="#000" stroke-width="2" fill="none"/><path d="M973.76 120l-14.26 4.64v-9.28z" stroke="#000" stroke-width="2"/><path d="M994 80c-8.84 0-16 7.16-16 16v48c0 8.84 7.16 16 16 16h128c8.84 0 16-7.16 16-16V96c0-8.84-7.16-16-16-16z" stroke="#000" stroke-width="2" fill="#fff"/><use xlink:href="#m" transform="matrix(1,0,0,1,985.9987525843544,88) translate(51 35.6)"/><path d="M920 120h38.5M920.03 120H919" stroke="#000" stroke-width="2" fill="none"/><path d="M973.76 120l-14.26 4.64v-9.28z" stroke="#000" stroke-width="2"/><path d="M979 225c0-2.76 2.24-5 5-5h150c2.76 0 5 2.24 5 5v70c0 2.76-2.24 5-5 5H984c-2.76 0-5-2.24-5-5z" stroke="#000" stroke-width="2" fill="#fff"/><use xlink:href="#n" transform="matrix(1,0,0,1,978.9993762921772,220) translate(50.605 31.9)"/><use xlink:href="#o" transform="matrix(1,0,0,1,978.9993762921772,220) translate(50.555 53.5)"/><path d="M978 365c0-2.76 2.24-5 5-5h150c2.76 0 5 2.24 5 5v70c0 2.76-2.24 5-5 5H983c-2.76 0-5-2.24-5-5z" stroke="#000" stroke-width="2" fill="#fff"/><use xlink:href="#p" transform="matrix(1,0,0,1,977.9987525843544,360) translate(35.10499999999999 44.4)"/><path d="M1058 162v27.5c0 .28.22.5.5.5s.5.22.5.5v10" stroke="#000" stroke-width="2" fill="none"/><path d="M1059 162.03h-2V161h2z"/><path d="M1059 215.76l-4.64-14.26h9.27z" stroke="#000" stroke-width="2"/><path d="M1059 302v27.5c0 .28-.22.5-.5.5s-.5.22-.5.5v10" stroke="#000" stroke-width="2" fill="none"/><path d="M1060 302.03h-2V301h2z"/><path d="M1058 355.76l-4.64-14.26h9.27z" stroke="#000" stroke-width="2"/><path d="M1140 120h37.5M1140.03 120H1139" stroke="#000" stroke-width="2" fill="none"/><path d="M1192.76 120l-14.26 4.64v-9.28z" stroke="#000" stroke-width="2"/><path d="M1213 80c-8.84 0-16 7.16-16 16v48c0 8.84 7.16 16 16 16h128c8.83 0 16-7.16 16-16V96c0-8.84-7.17-16-16-16z" stroke="#000" stroke-width="2" fill="#fff"/><use xlink:href="#m" transform="matrix(1,0,0,1,1204.9981288765316,88) translate(51 35.6)"/><path d="M1139 120h38.5M1139.02 120H1138" stroke="#000" stroke-width="2" fill="none"/><path d="M1192.76 120l-14.26 4.64v-9.28z" stroke="#000" stroke-width="2"/><path d="M1197 225c0-2.76 2.24-5 5-5h150c2.76 0 5 2.24 5 5v70c0 2.76-2.24 5-5 5h-150c-2.76 0-5-2.24-5-5z" stroke="#000" stroke-width="2" fill="#fff"/><use xlink:href="#n" transform="matrix(1,0,0,1,1196.9981288765316,220) translate(50.605 31.9)"/><use xlink:href="#q" transform="matrix(1,0,0,1,1196.9981288765316,220) translate(35.629999999999995 53.5)"/><path d="M1197 365c0-2.76 2.24-5 5-5h150c2.76 0 5 2.24 5 5v70c0 2.76-2.24 5-5 5h-150c-2.76 0-5-2.24-5-5z" stroke="#000" stroke-width="2" fill="#fff"/><use xlink:href="#r" transform="matrix(1,0,0,1,1196.9981288765316,360) translate(21.529999999999994 44.4)"/><path d="M1277 162v38.5" stroke="#000" stroke-width="2" fill="none"/><path d="M1278 162.03h-2V161h2z"/><path d="M1277 215.76l-4.64-14.26h9.27z" stroke="#000" stroke-width="2"/><path d="M1277 302v38.5" stroke="#000" stroke-width="2" fill="none"/><path d="M1278 302.03h-2V301h2z"/><path d="M1277 355.76l-4.64-14.26h9.27z" stroke="#000" stroke-width="2"/><path d="M1359 120h37.5M1359.02 120H1358" stroke="#000" stroke-width="2" fill="none"/><path d="M1411.76 120l-14.26 4.64v-9.28z" stroke="#000" stroke-width="2"/><path d="M1432 80c-8.84 0-16 7.16-16 16v48c0 8.84 7.16 16 16 16h128c8.83 0 16-7.16 16-16V96c0-8.84-7.17-16-16-16z" stroke="#000" stroke-width="2" fill="#fff"/><use xlink:href="#s" transform="matrix(1,0,0,1,1423.9975051687088,88) translate(33.074999999999996 35.6)"/><path d="M1358 120h38.5M1358.02 120H1357" stroke="#000" stroke-width="2" fill="none"/><path d="M1411.76 120l-14.26 4.64v-9.28z" stroke="#000" stroke-width="2"/><path d="M1416 225c0-2.76 2.24-5 5-5h150c2.76 0 5 2.24 5 5v70c0 2.76-2.24 5-5 5h-150c-2.76 0-5-2.24-5-5z" stroke="#000" stroke-width="2" fill="#fff"/><use xlink:href="#t" transform="matrix(1,0,0,1,1415.9975051687088,220) translate(50.05499999999999 44.4)"/><path d="M1416 365c0-2.76 2.24-5 5-5h150c2.76 0 5 2.24 5 5v70c0 2.76-2.24 5-5 5h-150c-2.76 0-5-2.24-5-5z" stroke="#000" stroke-width="2" fill="#fff"/><use xlink:href="#u" transform="matrix(1,0,0,1,1415.9975051687088,360) translate(54.555 44.4)"/><path d="M1496 162v38.5" stroke="#000" stroke-width="2" fill="none"/><path d="M1497 162.03h-2V161h2z"/><path d="M1496 215.76l-4.64-14.26h9.27z" stroke="#000" stroke-width="2"/><path d="M1496 302v38.5" stroke="#000" stroke-width="2" fill="none"/><path d="M1497 302.03h-2V301h2z"/><path d="M1496 355.76l-4.64-14.26h9.27z" stroke="#000" stroke-width="2"/><path d="M839 442v38.5" stroke="#000" stroke-width="2" fill="none"/><path d="M840 442.03h-2V441h2z"/><path d="M839 495.76l-4.64-14.26h9.27z" stroke="#000" stroke-width="2"/><path d="M1058 442v38.5" stroke="#000" stroke-width="2" fill="none"/><path d="M1059 442.03h-2V441h2z"/><path d="M1058 495.76l-4.64-14.26h9.28z" stroke="#000" stroke-width="2"/><path d="M1277 442v27.83c0 .1-.08.17-.17.17-.1 0-.16.07-.16.17v10.33" stroke="#000" stroke-width="2" fill="none"/><path d="M1278 442.03h-2V441h2z"/><path d="M1276.67 495.76l-4.64-14.26h9.27z" stroke="#000" stroke-width="2"/><path d="M1496 442v38.5" stroke="#000" stroke-width="2" fill="none"/><path d="M1497 442.03h-2V441h2z"/><path d="M1496 495.76l-4.64-14.26h9.27z" stroke="#000" stroke-width="2"/><path d="M1578 120h42.5" stroke="#000" stroke-width="2" fill="none"/><path d="M1578.02 121H1577v-2h1.02z"/><path d="M1635.76 120l-14.26 4.64v-9.28z" stroke="#000" stroke-width="2"/><path d="M1680 120c0 11.05-8.95 20-20 20s-20-8.95-20-20 8.95-20 20-20 20 8.95 20 20z" stroke="#000" stroke-width="2" fill="#fff"/><path d="M1672 120c0 6.63-5.37 12-12 12s-12-5.37-12-12 5.37-12 12-12 12 5.37 12 12z" stroke="#000" stroke-width="2"/><path d="M640 540v-35c0-2.76 2.24-5 5-5h1050c2.76 0 5 2.24 5 5v35" fill="#fff"/><path d="M640 540v-35c0-2.76 2.24-5 5-5h1050c2.76 0 5 2.24 5 5v35M640 540v155c0 2.76 2.24 5 5 5h1050c2.76 0 5-2.24 5-5V540M640 540h1060" stroke="#000" stroke-width="2" fill="none"/><use xlink:href="#v" transform="matrix(1,0,0,1,640,500) translate(507.025 23.6)"/><path d="M700 620c0 11.05-8.95 20-20 20s-20-8.95-20-20 8.95-20 20-20 20 8.95 20 20z" stroke="#000" stroke-width="2"/><path d="M759 585c0-2.76 2.24-5 5-5h150c2.76 0 5 2.24 5 5v70c0 2.76-2.24 5-5 5H764c-2.76 0-5-2.24-5-5z" stroke="#000" stroke-width="2" fill="#fff"/><use xlink:href="#w" transform="matrix(1,0,0,1,758.999376292224,580) translate(52.029999999999994 44.4)"/><path d="M702 620h37.5" stroke="#000" stroke-width="2" fill="none"/><path d="M702.03 621h-1.15l.12-.96-.03-1.04h1.06z"/><path d="M754.76 620l-14.26 4.64v-9.28z" stroke="#000" stroke-width="2"/><path d="M978 585c0-2.76 2.24-5 5-5h150c2.76 0 5 2.24 5 5v70c0 2.76-2.24 5-5 5H983c-2.76 0-5-2.24-5-5z" stroke="#000" stroke-width="2" fill="#fff"/><use xlink:href="#x" transform="matrix(1,0,0,1,977.9987525844481,580) translate(42.10499999999999 44.4)"/><path d="M921 620h37.5" stroke="#000" stroke-width="2" fill="none"/><path d="M921.03 621H920v-2h1.03z"/><path d="M973.76 620l-14.26 4.64v-9.28z" stroke="#000" stroke-width="2"/><path d="M1197 585c0-2.76 2.24-5 5-5h150c2.76 0 5 2.24 5 5v70c0 2.76-2.24 5-5 5h-150c-2.76 0-5-2.24-5-5z" stroke="#000" stroke-width="2" fill="#fff"/><use xlink:href="#y" transform="matrix(1,0,0,1,1196.9981288766721,580) translate(51.505 44.4)"/><path d="M1140 620h37.5" stroke="#000" stroke-width="2" fill="none"/><path d="M1140.02 621H1139v-2h1.02z"/><path d="M1192.76 620l-14.26 4.64v-9.28z" stroke="#000" stroke-width="2"/><path d="M1416 585c0-2.76 2.24-5 5-5h150c2.76 0 5 2.24 5 5v70c0 2.76-2.24 5-5 5h-150c-2.76 0-5-2.24-5-5z" stroke="#000" stroke-width="2" fill="#fff"/><use xlink:href="#z" transform="matrix(1,0,0,1,1415.9975051686633,580) translate(62.029999999999994 44.4)"/><path d="M1359 620h37.5" stroke="#000" stroke-width="2" fill="none"/><path d="M1359.02 621H1358v-2h1.02z"/><path d="M1411.76 620l-14.26 4.64v-9.28z" stroke="#000" stroke-width="2"/><path d="M1578 620h37.5" stroke="#000" stroke-width="2" fill="none"/><path d="M1578.02 621H1577v-2h1.02z"/><path d="M1630.76 620l-14.27 4.64v-9.28z" stroke="#000" stroke-width="2"/><path d="M1675 620c0 11.05-8.96 20-20 20-11.05 0-20-8.95-20-20s8.95-20 20-20c11.04 0 20 8.95 20 20z" stroke="#000" stroke-width="2" fill="#fff"/><path d="M1667 620c0 6.63-5.38 12-12 12-6.63 0-12-5.37-12-12s5.37-12 12-12c6.62 0 12 5.37 12 12z" stroke="#000" stroke-width="2"/><path d="M356 1040v-35c0-2.76 2.24-5 5-5h1050c2.76 0 5 2.24 5 5v35" fill="#fff"/><path d="M356 1040v-35c0-2.76 2.24-5 5-5h1050c2.76 0 5 2.24 5 5v35M356 1040v155c0 2.76 2.24 5 5 5h1050c2.76 0 5-2.24 5-5v-155M356 1040h1060" stroke="#000" stroke-width="2" fill="none"/><use xlink:href="#A" transform="matrix(1,0,0,1,355.99750516866334,1000) translate(485.575 23.6)"/><path d="M416 1120c0 11.05-8.96 20-20 20-11.05 0-20-8.95-20-20s8.95-20 20-20c11.04 0 20 8.95 20 20z" stroke="#000" stroke-width="2"/><path d="M475 1085c0-2.76 2.24-5 5-5h150c2.76 0 5 2.24 5 5v70c0 2.76-2.24 5-5 5H480c-2.76 0-5-2.24-5-5z" stroke="#000" stroke-width="2" fill="#fff"/><use xlink:href="#B" transform="matrix(1,0,0,1,474.9968814608874,1080) translate(46.004999999999995 44.4)"/><use xlink:href="#C" transform="matrix(1,0,0,1,474.9968814608874,1080) translate(113.005 44.4)"/><path d="M418 1120h37.5" stroke="#000" stroke-width="2" fill="none"/><path d="M418.02 1121h-1.14l.12-.96-.04-1.04h1.06z"/><path d="M470.76 1120l-14.27 4.64v-9.28z" stroke="#000" stroke-width="2"/><path d="M694 1085c0-2.76 2.23-5 5-5h150c2.76 0 5 2.24 5 5v70c0 2.76-2.24 5-5 5H699c-2.77 0-5-2.24-5-5z" stroke="#000" stroke-width="2" fill="#fff"/><use xlink:href="#D" transform="matrix(1,0,0,1,693.9962577531114,1080) translate(46.004999999999995 44.4)"/><use xlink:href="#C" transform="matrix(1,0,0,1,693.9962577531114,1080) translate(113.005 44.4)"/><path d="M637 1120h37.5" stroke="#000" stroke-width="2" fill="none"/><path d="M637.02 1121H636v-2h1.02z"/><path d="M689.76 1120l-14.27 4.64v-9.28z" stroke="#000" stroke-width="2"/><path d="M913 1085c0-2.76 2.23-5 5-5h150c2.76 0 5 2.24 5 5v70c0 2.76-2.24 5-5 5H918c-2.77 0-5-2.24-5-5z" stroke="#000" stroke-width="2" fill="#fff"/><use xlink:href="#w" transform="matrix(1,0,0,1,912.9956340453355,1080) translate(52.029999999999994 44.4)"/><path d="M856 1120h37.5" stroke="#000" stroke-width="2" fill="none"/><path d="M856.02 1121H855v-2h1.02z"/><path d="M908.76 1120l-14.27 4.64v-9.28z" stroke="#000" stroke-width="2"/><path d="M1132 1085c0-2.76 2.23-5 5-5h150c2.76 0 5 2.24 5 5v70c0 2.76-2.24 5-5 5h-150c-2.77 0-5-2.24-5-5z" stroke="#000" stroke-width="2" fill="#fff"/><use xlink:href="#x" transform="matrix(1,0,0,1,1131.9950103373267,1080) translate(42.10499999999999 44.4)"/><path d="M1075 1120h37.5" stroke="#000" stroke-width="2" fill="none"/><path d="M1075.02 1121H1074v-2h1.02z"/><path d="M1127.76 1120l-14.27 4.64v-9.28z" stroke="#000" stroke-width="2"/><path d="M1294 1120h37.5" stroke="#000" stroke-width="2" fill="none"/><path d="M1294.02 1121H1293v-2h1.02z"/><path d="M1346.76 1120l-14.27 4.64v-9.28z" stroke="#000" stroke-width="2"/><path d="M1391 1120c0 11.05-8.96 20-20 20-11.05 0-20-8.95-20-20s8.95-20 20-20c11.04 0 20 8.95 20 20z" stroke="#000" stroke-width="2" fill="#fff"/><path d="M1383 1120c0 6.63-5.38 12-12 12-6.63 0-12-5.37-12-12s5.37-12 12-12c6.62 0 12 5.37 12 12z" stroke="#000" stroke-width="2"/><defs><path d="M63-220v92h138v28H63V0H30v-248h175v28H63" id="E"/><path d="M141-36C126-15 110 5 73 4 37 3 15-17 15-53c-1-64 63-63 125-63 3-35-9-54-41-54-24 1-41 7-42 31l-33-3c5-37 33-52 76-52 45 0 72 20 72 64v82c-1 20 7 32 28 27v20c-31 9-61-2-59-35zM48-53c0 20 12 33 32 33 41-3 63-29 60-74-43 2-92-5-92 41" id="F"/><path d="M114-163C36-179 61-72 57 0H25l-1-190h30c1 12-1 29 2 39 6-27 23-49 58-41v29" id="G"/><path d="M210-169c-67 3-38 105-44 169h-31v-121c0-29-5-50-35-48C34-165 62-65 56 0H25l-1-190h30c1 10-1 24 2 32 10-44 99-50 107 0 11-21 27-35 58-36 85-2 47 119 55 194h-31v-121c0-29-5-49-35-48" id="H"/><path d="M100-194c63 0 86 42 84 106H49c0 40 14 67 53 68 26 1 43-12 49-29l28 8c-11 28-37 45-77 45C44 4 14-33 15-96c1-61 26-98 85-98zm52 81c6-60-76-77-97-28-3 7-6 17-6 28h103" id="I"/><g id="a"><use transform="matrix(0.05,0,0,0.05,0,0)" xlink:href="#E"/><use transform="matrix(0.05,0,0,0.05,10.950000000000001,0)" xlink:href="#F"/><use transform="matrix(0.05,0,0,0.05,20.950000000000003,0)" xlink:href="#G"/><use transform="matrix(0.05,0,0,0.05,26.900000000000002,0)" xlink:href="#H"/><use transform="matrix(0.05,0,0,0.05,41.85,0)" xlink:href="#I"/><use transform="matrix(0.05,0,0,0.05,51.85,0)" xlink:href="#G"/></g><path d="M24-231v-30h32v30H24zM24 0v-190h32V0H24" id="J"/><path d="M135-143c-3-34-86-38-87 0 15 53 115 12 119 90S17 21 10-45l28-5c4 36 97 45 98 0-10-56-113-15-118-90-4-57 82-63 122-42 12 7 21 19 24 35" id="K"/><path d="M240 0l2-218c-23 76-54 145-80 218h-23L58-218 59 0H30v-248h44l77 211c21-75 51-140 76-211h43V0h-30" id="L"/><path d="M117-194c89-4 53 116 60 194h-32v-121c0-31-8-49-39-48C34-167 62-67 57 0H25l-1-190h30c1 10-1 24 2 32 11-22 29-35 61-36" id="M"/><path d="M84 4C-5 8 30-112 23-190h32v120c0 31 7 50 39 49 72-2 45-101 50-169h31l1 190h-30c-1-10 1-25-2-33-11 22-28 36-60 37" id="N"/><path d="M101-234c-31-9-42 10-38 44h38v23H63V0H32v-167H5v-23h27c-7-52 17-82 69-68v24" id="O"/><path d="M96-169c-40 0-48 33-48 73s9 75 48 75c24 0 41-14 43-38l32 2c-6 37-31 61-74 61-59 0-76-41-82-99-10-93 101-131 147-64 4 7 5 14 7 22l-32 3c-4-21-16-35-41-35" id="P"/><path d="M59-47c-2 24 18 29 38 22v24C64 9 27 4 27-40v-127H5v-23h24l9-43h21v43h35v23H59v120" id="Q"/><path d="M100-194c62-1 85 37 85 99 1 63-27 99-86 99S16-35 15-95c0-66 28-99 85-99zM99-20c44 1 53-31 53-75 0-43-8-75-51-75s-53 32-53 75 10 74 51 75" id="R"/><g id="b"><use transform="matrix(0.05,0,0,0.05,0,0)" xlink:href="#J"/><use transform="matrix(0.05,0,0,0.05,3.95,0)" xlink:href="#K"/><use transform="matrix(0.05,0,0,0.05,12.949999999999998,0)" xlink:href="#L"/><use transform="matrix(0.05,0,0,0.05,27.899999999999995,0)" xlink:href="#F"/><use transform="matrix(0.05,0,0,0.05,37.9,0)" xlink:href="#M"/><use transform="matrix(0.05,0,0,0.05,47.9,0)" xlink:href="#N"/><use transform="matrix(0.05,0,0,0.05,57.900000000000006,0)" xlink:href="#O"/><use transform="matrix(0.05,0,0,0.05,62.900000000000006,0)" xlink:href="#F"/><use transform="matrix(0.05,0,0,0.05,72.9,0)" xlink:href="#P"/><use transform="matrix(0.05,0,0,0.05,81.9,0)" xlink:href="#Q"/><use transform="matrix(0.05,0,0,0.05,86.9,0)" xlink:href="#R"/><use transform="matrix(0.05,0,0,0.05,96.9,0)" xlink:href="#G"/></g><path d="M106-169C34-169 62-67 57 0H25v-261h32l-1 103c12-21 28-36 61-36 89 0 53 116 60 194h-32v-121c2-32-8-49-39-48" id="S"/><path d="M108 0H70L1-190h34L89-25l56-165h34" id="T"/><path d="M24 0v-261h32V0H24" id="U"/><path d="M85-194c31 0 48 13 60 33l-1-100h32l1 261h-30c-2-10 0-23-3-31C134-8 116 4 85 4 32 4 16-35 15-94c0-66 23-100 70-100zm9 24c-40 0-46 34-46 75 0 40 6 74 45 74 42 0 51-32 51-76 0-42-9-74-50-73" id="V"/><g id="c"><use transform="matrix(0.05,0,0,0.05,0,0)" xlink:href="#S"/><use transform="matrix(0.05,0,0,0.05,10,0)" xlink:href="#F"/><use transform="matrix(0.05,0,0,0.05,20,0)" xlink:href="#G"/><use transform="matrix(0.05,0,0,0.05,25.950000000000003,0)" xlink:href="#T"/><use transform="matrix(0.05,0,0,0.05,34.95,0)" xlink:href="#I"/><use transform="matrix(0.05,0,0,0.05,44.95,0)" xlink:href="#K"/><use transform="matrix(0.05,0,0,0.05,53.95,0)" xlink:href="#Q"/><use transform="matrix(0.05,0,0,0.05,58.95,0)" xlink:href="#E"/><use transform="matrix(0.05,0,0,0.05,69.9,0)" xlink:href="#J"/><use transform="matrix(0.05,0,0,0.05,73.85000000000001,0)" xlink:href="#I"/><use transform="matrix(0.05,0,0,0.05,83.85000000000001,0)" xlink:href="#U"/><use transform="matrix(0.05,0,0,0.05,87.80000000000001,0)" xlink:href="#V"/></g><g id="d"><use transform="matrix(0.05,0,0,0.05,0,0)" xlink:href="#L"/><use transform="matrix(0.05,0,0,0.05,14.950000000000001,0)" xlink:href="#J"/><use transform="matrix(0.05,0,0,0.05,18.900000000000002,0)" xlink:href="#U"/><use transform="matrix(0.05,0,0,0.05,22.85,0)" xlink:href="#U"/></g><path d="M140-251c81 0 123 46 123 126C263-46 219 4 140 4 59 4 17-45 17-125s42-126 123-126zm0 227c63 0 89-41 89-101s-29-99-89-99c-61 0-89 39-89 99S79-25 140-24" id="W"/><path d="M185-189c-5-48-123-54-124 2 14 75 158 14 163 119 3 78-121 87-175 55-17-10-28-26-33-46l33-7c5 56 141 63 141-1 0-78-155-14-162-118-5-82 145-84 179-34 5 7 8 16 11 25" id="X"/><g id="e"><use transform="matrix(0.05,0,0,0.05,0,0)" xlink:href="#S"/><use transform="matrix(0.05,0,0,0.05,10,0)" xlink:href="#F"/><use transform="matrix(0.05,0,0,0.05,20,0)" xlink:href="#K"/><use transform="matrix(0.05,0,0,0.05,29,0)" xlink:href="#W"/><use transform="matrix(0.05,0,0,0.05,43,0)" xlink:href="#J"/><use transform="matrix(0.05,0,0,0.05,46.95,0)" xlink:href="#U"/><use transform="matrix(0.05,0,0,0.05,50.900000000000006,0)" xlink:href="#X"/><use transform="matrix(0.05,0,0,0.05,62.900000000000006,0)" xlink:href="#I"/><use transform="matrix(0.05,0,0,0.05,72.9,0)" xlink:href="#I"/><use transform="matrix(0.05,0,0,0.05,82.9,0)" xlink:href="#V"/></g><g id="f"><use transform="matrix(0.05,0,0,0.05,0,0)" xlink:href="#J"/><use transform="matrix(0.05,0,0,0.05,3.95,0)" xlink:href="#K"/><use transform="matrix(0.05,0,0,0.05,12.949999999999998,0)" xlink:href="#L"/><use transform="matrix(0.05,0,0,0.05,27.899999999999995,0)" xlink:href="#F"/><use transform="matrix(0.05,0,0,0.05,37.9,0)" xlink:href="#M"/><use transform="matrix(0.05,0,0,0.05,47.9,0)" xlink:href="#N"/><use transform="matrix(0.05,0,0,0.05,57.900000000000006,0)" xlink:href="#O"/><use transform="matrix(0.05,0,0,0.05,62.900000000000006,0)" xlink:href="#F"/><use transform="matrix(0.05,0,0,0.05,72.9,0)" xlink:href="#P"/><use transform="matrix(0.05,0,0,0.05,81.9,0)" xlink:href="#Q"/><use transform="matrix(0.05,0,0,0.05,86.9,0)" xlink:href="#R"/><use transform="matrix(0.05,0,0,0.05,96.9,0)" xlink:href="#G"/></g><path d="M115-194c55 1 70 41 70 98S169 2 115 4C84 4 66-9 55-30l1 105H24l-1-265h31l2 30c10-21 28-34 59-34zm-8 174c40 0 45-34 45-75s-6-73-45-74c-42 0-51 32-51 76 0 43 10 73 51 73" id="Y"/><g id="g"><use transform="matrix(0.05,0,0,0.05,0,0)" xlink:href="#Y"/><use transform="matrix(0.05,0,0,0.05,10,0)" xlink:href="#G"/><use transform="matrix(0.05,0,0,0.05,15.949999999999998,0)" xlink:href="#I"/><use transform="matrix(0.05,0,0,0.05,25.950000000000003,0)" xlink:href="#K"/><use transform="matrix(0.05,0,0,0.05,34.95,0)" xlink:href="#K"/><use transform="matrix(0.05,0,0,0.05,43.95,0)" xlink:href="#W"/><use transform="matrix(0.05,0,0,0.05,57.95,0)" xlink:href="#J"/><use transform="matrix(0.05,0,0,0.05,61.900000000000006,0)" xlink:href="#U"/></g><path d="M30-248c87 1 191-15 191 75 0 78-77 80-158 76V0H30v-248zm33 125c57 0 124 11 124-50 0-59-68-47-124-48v98" id="Z"/><g id="h"><use transform="matrix(0.05,0,0,0.05,0,0)" xlink:href="#J"/><use transform="matrix(0.05,0,0,0.05,3.95,0)" xlink:href="#K"/><use transform="matrix(0.05,0,0,0.05,12.949999999999998,0)" xlink:href="#Z"/><use transform="matrix(0.05,0,0,0.05,24.95,0)" xlink:href="#G"/><use transform="matrix(0.05,0,0,0.05,30.899999999999995,0)" xlink:href="#I"/><use transform="matrix(0.05,0,0,0.05,40.9,0)" xlink:href="#K"/><use transform="matrix(0.05,0,0,0.05,49.9,0)" xlink:href="#K"/><use transform="matrix(0.05,0,0,0.05,58.900000000000006,0)" xlink:href="#I"/><use transform="matrix(0.05,0,0,0.05,68.9,0)" xlink:href="#V"/></g><path d="M115-194c53 0 69 39 70 98 0 66-23 100-70 100C84 3 66-7 56-30L54 0H23l1-261h32v101c10-23 28-34 59-34zm-8 174c40 0 45-34 45-75 0-40-5-75-45-74-42 0-51 32-51 76 0 43 10 73 51 73" id="aa"/><path d="M177-190C167-65 218 103 67 71c-23-6-38-20-44-43l32-5c15 47 100 32 89-28v-30C133-14 115 1 83 1 29 1 15-40 15-95c0-56 16-97 71-98 29-1 48 16 59 35 1-10 0-23 2-32h30zM94-22c36 0 50-32 50-73 0-42-14-75-50-75-39 0-46 34-46 75s6 73 46 73" id="ab"/><g id="i"><use transform="matrix(0.05,0,0,0.05,0,0)" xlink:href="#aa"/><use transform="matrix(0.05,0,0,0.05,10,0)" xlink:href="#R"/><use transform="matrix(0.05,0,0,0.05,20,0)" xlink:href="#Q"/><use transform="matrix(0.05,0,0,0.05,25,0)" xlink:href="#Q"/><use transform="matrix(0.05,0,0,0.05,30,0)" xlink:href="#U"/><use transform="matrix(0.05,0,0,0.05,33.95,0)" xlink:href="#J"/><use transform="matrix(0.05,0,0,0.05,37.900000000000006,0)" xlink:href="#M"/><use transform="matrix(0.05,0,0,0.05,47.900000000000006,0)" xlink:href="#ab"/></g><g id="j"><use transform="matrix(0.05,0,0,0.05,0,0)" xlink:href="#E"/><use transform="matrix(0.05,0,0,0.05,10.950000000000001,0)" xlink:href="#J"/><use transform="matrix(0.05,0,0,0.05,14.9,0)" xlink:href="#I"/><use transform="matrix(0.05,0,0,0.05,24.900000000000002,0)" xlink:href="#U"/><use transform="matrix(0.05,0,0,0.05,28.85,0)" xlink:href="#V"/></g><g id="k"><use transform="matrix(0.05,0,0,0.05,0,0)" xlink:href="#Z"/><use transform="matrix(0.05,0,0,0.05,12,0)" xlink:href="#U"/><use transform="matrix(0.05,0,0,0.05,15.949999999999998,0)" xlink:href="#F"/><use transform="matrix(0.05,0,0,0.05,25.950000000000003,0)" xlink:href="#M"/><use transform="matrix(0.05,0,0,0.05,35.95,0)" xlink:href="#Q"/><use transform="matrix(0.05,0,0,0.05,40.95,0)" xlink:href="#I"/><use transform="matrix(0.05,0,0,0.05,50.95,0)" xlink:href="#V"/></g><path d="M197 0v-115H63V0H30v-248h33v105h134v-105h34V0h-34" id="ac"/><g id="l"><use transform="matrix(0.05,0,0,0.05,0,0)" xlink:href="#ac"/><use transform="matrix(0.05,0,0,0.05,12.950000000000001,0)" xlink:href="#F"/><use transform="matrix(0.05,0,0,0.05,22.950000000000003,0)" xlink:href="#G"/><use transform="matrix(0.05,0,0,0.05,28.900000000000002,0)" xlink:href="#T"/><use transform="matrix(0.05,0,0,0.05,37.900000000000006,0)" xlink:href="#I"/><use transform="matrix(0.05,0,0,0.05,47.900000000000006,0)" xlink:href="#K"/><use transform="matrix(0.05,0,0,0.05,56.900000000000006,0)" xlink:href="#Q"/></g><g id="m"><use transform="matrix(0.05,0,0,0.05,0,0)" xlink:href="#X"/><use transform="matrix(0.05,0,0,0.05,12,0)" xlink:href="#S"/><use transform="matrix(0.05,0,0,0.05,22,0)" xlink:href="#R"/><use transform="matrix(0.05,0,0,0.05,32,0)" xlink:href="#Y"/></g><g id="n"><use transform="matrix(0.05,0,0,0.05,0,0)" xlink:href="#J"/><use transform="matrix(0.05,0,0,0.05,3.95,0)" xlink:href="#K"/><use transform="matrix(0.05,0,0,0.05,12.949999999999998,0)" xlink:href="#X"/><use transform="matrix(0.05,0,0,0.05,24.95,0)" xlink:href="#I"/><use transform="matrix(0.05,0,0,0.05,34.95,0)" xlink:href="#U"/><use transform="matrix(0.05,0,0,0.05,38.900000000000006,0)" xlink:href="#U"/><use transform="matrix(0.05,0,0,0.05,42.85000000000001,0)" xlink:href="#I"/><use transform="matrix(0.05,0,0,0.05,52.85,0)" xlink:href="#G"/></g><path d="M160-131c35 5 61 23 61 61C221 17 115-2 30 0v-248c76 3 177-17 177 60 0 33-19 50-47 57zm-97-11c50-1 110 9 110-42 0-47-63-36-110-37v79zm0 115c55-2 124 14 124-45 0-56-70-42-124-44v89" id="ad"/><g id="o"><use transform="matrix(0.05,0,0,0.05,0,0)" xlink:href="#J"/><use transform="matrix(0.05,0,0,0.05,3.95,0)" xlink:href="#K"/><use transform="matrix(0.05,0,0,0.05,12.949999999999998,0)" xlink:href="#ad"/><use transform="matrix(0.05,0,0,0.05,24.95,0)" xlink:href="#R"/><use transform="matrix(0.05,0,0,0.05,34.95,0)" xlink:href="#Q"/><use transform="matrix(0.05,0,0,0.05,39.95,0)" xlink:href="#Q"/><use transform="matrix(0.05,0,0,0.05,44.95,0)" xlink:href="#U"/><use transform="matrix(0.05,0,0,0.05,48.900000000000006,0)" xlink:href="#I"/></g><path d="M30-248c118-7 216 8 213 122C240-48 200 0 122 0H30v-248zM63-27c89 8 146-16 146-99s-60-101-146-95v194" id="ae"/><path d="M179-190L93 31C79 59 56 82 12 73V49c39 6 53-20 64-50L1-190h34L92-34l54-156h33" id="af"/><g id="p"><use transform="matrix(0.05,0,0,0.05,0,0)" xlink:href="#ab"/><use transform="matrix(0.05,0,0,0.05,10,0)" xlink:href="#I"/><use transform="matrix(0.05,0,0,0.05,20,0)" xlink:href="#Q"/><use transform="matrix(0.05,0,0,0.05,25,0)" xlink:href="#ae"/><use transform="matrix(0.05,0,0,0.05,37.95,0)" xlink:href="#I"/><use transform="matrix(0.05,0,0,0.05,47.95,0)" xlink:href="#U"/><use transform="matrix(0.05,0,0,0.05,51.900000000000006,0)" xlink:href="#J"/><use transform="matrix(0.05,0,0,0.05,55.85,0)" xlink:href="#T"/><use transform="matrix(0.05,0,0,0.05,64.85000000000001,0)" xlink:href="#I"/><use transform="matrix(0.05,0,0,0.05,74.85000000000001,0)" xlink:href="#G"/><use transform="matrix(0.05,0,0,0.05,80.80000000000001,0)" xlink:href="#af"/></g><g id="q"><use transform="matrix(0.05,0,0,0.05,0,0)" xlink:href="#J"/><use transform="matrix(0.05,0,0,0.05,3.95,0)" xlink:href="#K"/><use transform="matrix(0.05,0,0,0.05,12.949999999999998,0)" xlink:href="#ae"/><use transform="matrix(0.05,0,0,0.05,25.899999999999995,0)" xlink:href="#I"/><use transform="matrix(0.05,0,0,0.05,35.9,0)" xlink:href="#U"/><use transform="matrix(0.05,0,0,0.05,39.85,0)" xlink:href="#J"/><use transform="matrix(0.05,0,0,0.05,43.800000000000004,0)" xlink:href="#T"/><use transform="matrix(0.05,0,0,0.05,52.800000000000004,0)" xlink:href="#I"/><use transform="matrix(0.05,0,0,0.05,62.800000000000004,0)" xlink:href="#G"/><use transform="matrix(0.05,0,0,0.05,68.75,0)" xlink:href="#I"/><use transform="matrix(0.05,0,0,0.05,78.75,0)" xlink:href="#V"/></g><path d="M33 0v-248h34V0H33" id="ag"/><g id="r"><use transform="matrix(0.05,0,0,0.05,0,0)" xlink:href="#Y"/><use transform="matrix(0.05,0,0,0.05,10,0)" xlink:href="#G"/><use transform="matrix(0.05,0,0,0.05,15.949999999999998,0)" xlink:href="#I"/><use transform="matrix(0.05,0,0,0.05,25.950000000000003,0)" xlink:href="#K"/><use transform="matrix(0.05,0,0,0.05,34.95,0)" xlink:href="#I"/><use transform="matrix(0.05,0,0,0.05,44.95,0)" xlink:href="#M"/><use transform="matrix(0.05,0,0,0.05,54.95,0)" xlink:href="#Q"/><use transform="matrix(0.05,0,0,0.05,59.95,0)" xlink:href="#ag"/><use transform="matrix(0.05,0,0,0.05,64.95,0)" xlink:href="#M"/><use transform="matrix(0.05,0,0,0.05,74.95,0)" xlink:href="#X"/><use transform="matrix(0.05,0,0,0.05,86.95,0)" xlink:href="#S"/><use transform="matrix(0.05,0,0,0.05,96.95,0)" xlink:href="#R"/><use transform="matrix(0.05,0,0,0.05,106.95,0)" xlink:href="#Y"/></g><path d="M212-179c-10-28-35-45-73-45-59 0-87 40-87 99 0 60 29 101 89 101 43 0 62-24 78-52l27 14C228-24 195 4 139 4 59 4 22-46 18-125c-6-104 99-153 187-111 19 9 31 26 39 46" id="ah"/><g id="s"><use transform="matrix(0.05,0,0,0.05,0,0)" xlink:href="#ah"/><use transform="matrix(0.05,0,0,0.05,12.950000000000001,0)" xlink:href="#N"/><use transform="matrix(0.05,0,0,0.05,22.950000000000003,0)" xlink:href="#K"/><use transform="matrix(0.05,0,0,0.05,31.950000000000003,0)" xlink:href="#Q"/><use transform="matrix(0.05,0,0,0.05,36.95,0)" xlink:href="#R"/><use transform="matrix(0.05,0,0,0.05,46.95,0)" xlink:href="#H"/><use transform="matrix(0.05,0,0,0.05,61.900000000000006,0)" xlink:href="#I"/><use transform="matrix(0.05,0,0,0.05,71.9,0)" xlink:href="#G"/></g><g id="t"><use transform="matrix(0.05,0,0,0.05,0,0)" xlink:href="#J"/><use transform="matrix(0.05,0,0,0.05,3.95,0)" xlink:href="#K"/><use transform="matrix(0.05,0,0,0.05,12.949999999999998,0)" xlink:href="#ad"/><use transform="matrix(0.05,0,0,0.05,24.95,0)" xlink:href="#N"/><use transform="matrix(0.05,0,0,0.05,34.95,0)" xlink:href="#af"/><use transform="matrix(0.05,0,0,0.05,43.95,0)" xlink:href="#I"/><use transform="matrix(0.05,0,0,0.05,53.95,0)" xlink:href="#G"/></g><g id="u"><use transform="matrix(0.05,0,0,0.05,0,0)" xlink:href="#aa"/><use transform="matrix(0.05,0,0,0.05,10,0)" xlink:href="#N"/><use transform="matrix(0.05,0,0,0.05,20,0)" xlink:href="#af"/><use transform="matrix(0.05,0,0,0.05,29,0)" xlink:href="#W"/><use transform="matrix(0.05,0,0,0.05,43,0)" xlink:href="#J"/><use transform="matrix(0.05,0,0,0.05,46.95,0)" xlink:href="#U"/></g><g id="v"><use transform="matrix(0.05,0,0,0.05,0,0)" xlink:href="#ad"/><use transform="matrix(0.05,0,0,0.05,12,0)" xlink:href="#R"/><use transform="matrix(0.05,0,0,0.05,22,0)" xlink:href="#Q"/><use transform="matrix(0.05,0,0,0.05,27,0)" xlink:href="#Q"/><use transform="matrix(0.05,0,0,0.05,32,0)" xlink:href="#U"/><use transform="matrix(0.05,0,0,0.05,35.95,0)" xlink:href="#I"/></g><g id="w"><use transform="matrix(0.05,0,0,0.05,0,0)" xlink:href="#ad"/><use transform="matrix(0.05,0,0,0.05,12,0)" xlink:href="#R"/><use transform="matrix(0.05,0,0,0.05,22,0)" xlink:href="#Q"/><use transform="matrix(0.05,0,0,0.05,27,0)" xlink:href="#Q"/><use transform="matrix(0.05,0,0,0.05,32,0)" xlink:href="#U"/><use transform="matrix(0.05,0,0,0.05,35.95,0)" xlink:href="#I"/><use transform="matrix(0.05,0,0,0.05,45.95,0)" xlink:href="#V"/></g><g id="x"><use transform="matrix(0.05,0,0,0.05,0,0)" xlink:href="#ae"/><use transform="matrix(0.05,0,0,0.05,12.950000000000001,0)" xlink:href="#I"/><use transform="matrix(0.05,0,0,0.05,22.950000000000003,0)" xlink:href="#U"/><use transform="matrix(0.05,0,0,0.05,26.900000000000002,0)" xlink:href="#J"/><use transform="matrix(0.05,0,0,0.05,30.85,0)" xlink:href="#T"/><use transform="matrix(0.05,0,0,0.05,39.85,0)" xlink:href="#I"/><use transform="matrix(0.05,0,0,0.05,49.85,0)" xlink:href="#G"/><use transform="matrix(0.05,0,0,0.05,55.800000000000004,0)" xlink:href="#I"/><use transform="matrix(0.05,0,0,0.05,65.80000000000001,0)" xlink:href="#V"/></g><g id="y"><use transform="matrix(0.05,0,0,0.05,0,0)" xlink:href="#ag"/><use transform="matrix(0.05,0,0,0.05,5,0)" xlink:href="#M"/><use transform="matrix(0.05,0,0,0.05,15,0)" xlink:href="#X"/><use transform="matrix(0.05,0,0,0.05,27,0)" xlink:href="#S"/><use transform="matrix(0.05,0,0,0.05,37,0)" xlink:href="#R"/><use transform="matrix(0.05,0,0,0.05,47,0)" xlink:href="#Y"/></g><g id="z"><use transform="matrix(0.05,0,0,0.05,0,0)" xlink:href="#X"/><use transform="matrix(0.05,0,0,0.05,12,0)" xlink:href="#R"/><use transform="matrix(0.05,0,0,0.05,22,0)" xlink:href="#U"/><use transform="matrix(0.05,0,0,0.05,25.950000000000003,0)" xlink:href="#V"/></g><g id="A"><use transform="matrix(0.05,0,0,0.05,0,0)" xlink:href="#W"/><use transform="matrix(0.05,0,0,0.05,14,0)" xlink:href="#U"/><use transform="matrix(0.05,0,0,0.05,17.95,0)" xlink:href="#J"/><use transform="matrix(0.05,0,0,0.05,21.9,0)" xlink:href="#Z"/><use transform="matrix(0.05,0,0,0.05,33.9,0)" xlink:href="#G"/><use transform="matrix(0.05,0,0,0.05,39.85,0)" xlink:href="#R"/><use transform="matrix(0.05,0,0,0.05,49.85,0)" xlink:href="#V"/><use transform="matrix(0.05,0,0,0.05,59.85,0)" xlink:href="#N"/><use transform="matrix(0.05,0,0,0.05,69.85,0)" xlink:href="#P"/><use transform="matrix(0.05,0,0,0.05,78.85,0)" xlink:href="#I"/></g><g id="B"><use transform="matrix(0.05,0,0,0.05,0,0)" xlink:href="#ac"/><use transform="matrix(0.05,0,0,0.05,12.950000000000001,0)" xlink:href="#F"/><use transform="matrix(0.05,0,0,0.05,22.950000000000003,0)" xlink:href="#G"/><use transform="matrix(0.05,0,0,0.05,28.900000000000002,0)" xlink:href="#T"/><use transform="matrix(0.05,0,0,0.05,37.900000000000006,0)" xlink:href="#I"/><use transform="matrix(0.05,0,0,0.05,47.900000000000006,0)" xlink:href="#K"/><use transform="matrix(0.05,0,0,0.05,56.900000000000006,0)" xlink:href="#Q"/></g><g id="D"><use transform="matrix(0.05,0,0,0.05,0,0)" xlink:href="#Z"/><use transform="matrix(0.05,0,0,0.05,12,0)" xlink:href="#G"/><use transform="matrix(0.05,0,0,0.05,17.95,0)" xlink:href="#I"/><use transform="matrix(0.05,0,0,0.05,27.950000000000003,0)" xlink:href="#K"/><use transform="matrix(0.05,0,0,0.05,36.95,0)" xlink:href="#K"/><use transform="matrix(0.05,0,0,0.05,45.95,0)" xlink:href="#I"/><use transform="matrix(0.05,0,0,0.05,55.95,0)" xlink:href="#V"/></g></defs></g></svg>